<?xml version="1.0" encoding="UTF-8" standalone="no"?>
<!-- Created with Inkscape (http://www.inkscape.org/) -->

<svg
   xmlns:dc="http://purl.org/dc/elements/1.1/"
   xmlns:cc="http://creativecommons.org/ns#"
   xmlns:rdf="http://www.w3.org/1999/02/22-rdf-syntax-ns#"
   xmlns:svg="http://www.w3.org/2000/svg"
   xmlns="http://www.w3.org/2000/svg"
   xmlns:sodipodi="http://sodipodi.sourceforge.net/DTD/sodipodi-0.dtd"
   xmlns:inkscape="http://www.inkscape.org/namespaces/inkscape"
   width="256"
   height="256"
   id="svg2"
   version="1.1"
   inkscape:version="0.47 r22583"
   sodipodi:docname="bitcoin.svg">
  <defs
     id="defs4" />
  <sodipodi:namedview
     id="base"
     pagecolor="#ffffff"
     bordercolor="#666666"
     borderopacity="1.0"
     inkscape:pageopacity="0"
     inkscape:pageshadow="2"
     inkscape:zoom="0.98994949"
     inkscape:cx="82.523998"
     inkscape:cy="119.56275"
     inkscape:document-units="px"
     inkscape:current-layer="layer1"
     showgrid="false"
     inkscape:window-width="1229"
     inkscape:window-height="990"
     inkscape:window-x="2"
     inkscape:window-y="6"
     inkscape:window-maximized="0"
     showguides="true"
     inkscape:guide-bbox="true">
    <sodipodi:guide
       orientation="1,0"
       position="-153.07495,275.6648"
       id="guide2931" />
    <sodipodi:guide
       orientation="0,1"
       position="-153.07495,393.85265"
       id="guide2933" />
  </sodipodi:namedview>
  <metadata
     id="metadata7">
    <rdf:RDF>
      <cc:Work
         rdf:about="">
        <dc:format>image/svg+xml</dc:format>
        <dc:type
           rdf:resource="http://purl.org/dc/dcmitype/StillImage" />
        <dc:title></dc:title>
      </cc:Work>
    </rdf:RDF>
  </metadata>
  <g
     inkscape:label="Layer 1"
     inkscape:groupmode="layer"
     id="layer1"
     transform="translate(-292.476,-471.99637)">
    <g
       id="g2979"
       transform="matrix(0.46714671,0,0,0.46714671,224.05202,321.093)">
      <path
         d="m 681.85297,610.42047 c 0,147.56239 -119.62295,267.18533 -267.18534,267.18533 -147.56238,0 -267.18533,-119.62294 -267.18533,-267.18533 0,-147.56238 119.62295,-267.18533 267.18533,-267.18533 147.56239,0 267.18534,119.62295 267.18534,267.18533 z"
         sodipodi:ry="267.18533"
         sodipodi:rx="267.18533"
         sodipodi:cy="610.42047"
         sodipodi:cx="414.66763"
         id="path2818-2"
         style="fill:#241c1c"
         sodipodi:type="arc"
         transform="translate(12.62689,-9.0914182)" />
      <path
         transform="translate(-1.0101525,-6.5660096)"
         d="m 681.85297,610.42047 c 0,147.56239 -119.62295,267.18533 -267.18534,267.18533 -147.56238,0 -267.18533,-119.62294 -267.18533,-267.18533 0,-147.56238 119.62295,-267.18533 267.18533,-267.18533 147.56239,0 267.18534,119.62295 267.18534,267.18533 z"
         sodipodi:ry="267.18533"
         sodipodi:rx="267.18533"
         sodipodi:cy="610.42047"
         sodipodi:cx="414.66763"
         id="path2818"
         style="fill:#5599ff"
         sodipodi:type="arc" />
      <path
         d="m 681.85297,610.42047 c 0,147.56239 -119.62295,267.18533 -267.18534,267.18533 -147.56238,0 -267.18533,-119.62294 -267.18533,-267.18533 0,-147.56238 119.62295,-267.18533 267.18533,-267.18533 147.56239,0 267.18534,119.62295 267.18534,267.18533 z"
         sodipodi:ry="267.18533"
         sodipodi:rx="267.18533"
         sodipodi:cy="610.42047"
         sodipodi:cx="414.66763"
         id="path2818-6"
         style="fill:#2c5aa0"
         sodipodi:type="arc"
         transform="matrix(0.97802647,0,0,0.97802647,8.606623,6.3419764)" />
      <path
         id="path2842"
         d="m 344.46202,570.01432 c -6.06091,0 -12.12183,0 -18.18275,0 -1.16927,0 -4.14891,-0.22546 -5.05076,0 -0.73044,0.18261 -1.30602,0.77206 -2.0203,1.01015 -0.31944,0.10648 -0.70899,-0.15058 -1.01016,0 -0.42591,0.21296 -0.58423,0.7972 -1.01015,1.01016 -0.30117,0.15058 -0.67343,0 -1.01015,0 -0.33672,0.33671 -0.58424,0.79719 -1.01015,1.01015 -1.39336,0.69668 -0.90356,-1.22335 -2.02031,1.01015 -0.69668,1.39336 1.22335,0.90356 -1.01015,2.02031 -0.30117,0.15058 -0.77206,-0.2381 -1.01015,0 -0.2381,0.23809 0.15058,0.70898 0,1.01015 -2.10201,4.20401 0.0697,-1.07989 -2.02031,1.01015 -0.23809,0.2381 0.2381,0.77206 0,1.01015 -0.23809,0.2381 -0.77206,-0.23809 -1.01015,0 -0.2381,0.2381 0.23809,0.77206 0,1.01016 -2.09004,2.09004 0.0817,-3.19386 -2.02031,1.01015 -0.15058,0.30117 0.15059,0.70898 0,1.01015 -0.42591,0.85184 -1.59438,1.16847 -2.0203,2.02031 -0.15059,0.30117 0.15058,0.70898 0,1.01015 -2.10201,4.20401 0.0697,-1.07989 -2.02031,1.01015 -0.47619,0.47619 0.47619,1.54412 0,2.02031 -0.23809,0.23809 -0.77205,-0.2381 -1.01015,0 -0.24307,0.24307 0.24308,3.79753 0,4.04061 -0.23809,0.23809 -0.77206,-0.2381 -1.01015,0 -0.2381,0.23809 0.23809,0.77205 0,1.01015 -0.2381,0.2381 -0.77206,-0.2381 -1.01015,0 -0.35459,0.35458 0.34887,4.35302 0,5.05076 -0.21296,0.42592 -0.7972,0.58424 -1.01016,1.01016 -0.30117,0.60233 0.47619,1.54411 0,2.0203 -0.23809,0.2381 -0.77205,-0.23809 -1.01015,0 -0.50508,0.50508 0.50508,2.52538 0,3.03046 -0.23809,0.23809 -0.77206,-0.2381 -1.01015,0 -0.2381,0.23809 0.15058,0.70898 0,1.01015 -0.21296,0.42592 -0.7972,0.58424 -1.01015,1.01015 -0.30117,0.60234 0.47619,1.54412 0,2.02031 -0.2381,0.23809 -0.77206,-0.2381 -1.01016,0 -0.2764,0.2764 0.274,3.49261 0,4.04061 -0.21296,0.42592 -0.79719,0.58423 -1.01015,1.01015 -0.15058,0.30117 0.2381,0.77206 0,1.01015 -0.23809,0.2381 -0.77206,-0.23809 -1.01015,0 -0.0325,0.0325 0,2.78547 0,3.03046 0,6.06092 0,12.12183 0,18.18275 0,4.71404 0,9.42809 0,14.14213 0,0.33672 0,0.67344 0,1.01016 0,0.33671 -0.2381,0.77205 0,1.01015 0.23809,0.23809 0.77206,-0.2381 1.01015,0 0.2381,0.23809 -0.23809,0.77206 0,1.01015 0.2381,0.2381 0.77206,-0.23809 1.01015,0 0.47619,0.47619 -0.47619,1.54411 0,2.02031 0.2381,0.23809 0.77206,-0.2381 1.01016,0 0.23809,0.23809 -0.2381,0.77205 0,1.01015 0.23809,0.23809 0.77205,-0.2381 1.01015,0 0.47619,0.47619 -0.30117,1.41796 0,2.0203 0.42592,0.85184 1.59439,1.16847 2.0203,2.02031 0.15059,0.30117 -0.23809,0.77206 0,1.01015 0.2381,0.2381 0.70899,-0.15058 1.01016,0 1.21218,0.60609 1.81827,2.42437 3.03045,3.03046 0.30117,0.15058 0.77206,-0.2381 1.01016,0 0.23809,0.23809 -0.15059,0.70898 0,1.01015 0.60609,1.21218 2.42436,1.81828 3.03045,3.03046 0.15059,0.30117 -0.23809,0.77206 0,1.01015 0.2381,0.2381 0.77206,-0.23809 1.01016,0 0.23809,0.2381 -0.2381,0.77206 0,1.01015 0.23809,0.2381 0.70898,-0.15058 1.01015,0 0.42592,0.21296 0.58423,0.7972 1.01015,1.01016 0.30117,0.15058 0.77206,-0.2381 1.01015,0 0.2381,0.23809 -0.15058,0.70898 0,1.01015 0.21296,0.42592 0.7972,0.58423 1.01016,1.01015 0.15058,0.30117 -0.2381,0.77206 0,1.01015 0.23809,0.2381 0.77205,-0.23809 1.01015,0 0.23809,0.2381 -0.2381,0.77206 0,1.01016 0.23809,0.23809 0.77206,-0.2381 1.01015,0 0.2381,0.23809 -0.23809,0.77205 0,1.01015 0.2381,0.23809 0.77206,-0.2381 1.01015,0 0.2381,0.23809 -0.23809,0.77206 0,1.01015 0.2381,0.2381 0.67344,0 1.01016,0 0,0.33672 -0.15059,0.70898 0,1.01015 0.21296,0.42592 0.67343,0.67344 1.01015,1.01016 0.33672,0.33671 0.58423,0.79719 1.01015,1.01015 0.30117,0.15058 0.77206,-0.2381 1.01015,0 0.2381,0.23809 -0.23809,0.77206 0,1.01015 0.2381,0.2381 0.70899,-0.15058 1.01016,0 0.42591,0.21296 0.58423,0.7972 1.01015,1.01015 0.30117,0.15059 0.77206,-0.23809 1.01015,0 0.2381,0.2381 -0.23809,0.77206 0,1.01016 0.2381,0.23809 0.67344,0 1.01015,0 0,0.33671 -0.15058,0.70898 0,1.01015 2.10201,4.20401 -0.0697,-1.07989 2.02031,1.01015 0.23809,0.2381 -0.15059,0.70898 0,1.01015 2.10201,4.20402 -0.0697,-1.07988 2.0203,1.01016 0.2381,0.23809 -0.23809,0.77205 0,1.01015 0.2381,0.23809 0.70899,-0.15059 1.01016,0 0.42591,0.21296 0.58423,0.79719 1.01015,1.01015 0.30117,0.15059 0.77206,-0.23809 1.01015,0 0.2381,0.2381 -0.23809,0.77206 0,1.01015 0.2381,0.2381 0.70899,-0.15058 1.01015,0 0.42592,0.21296 0.58424,0.7972 1.01016,1.01016 0.30117,0.15058 0.77205,-0.2381 1.01015,0 0.2381,0.23809 -0.2381,0.77205 0,1.01015 0.2764,0.2764 3.49261,-0.274 4.04061,0 0.42592,0.21296 0.58423,0.79719 1.01015,1.01015 0.30117,0.15059 0.70899,-0.15058 1.01016,0 0.42591,0.21296 0.58423,0.7972 1.01015,1.01015 0.30117,0.15059 0.77206,-0.23809 1.01015,0 0.2381,0.2381 -0.23809,0.77206 0,1.01016 0.47619,0.47619 1.41797,-0.30117 2.02031,0 0.42591,0.21296 0.58423,0.79719 1.01015,1.01015 0.30117,0.15058 0.77206,-0.2381 1.01015,0 0.2381,0.23809 -0.23809,0.77206 0,1.01015 0.2381,0.2381 0.77206,-0.23809 1.01015,0 0.2381,0.2381 -0.23809,0.77206 0,1.01015 0.2381,0.2381 0.77206,-0.23809 1.01016,0 0.23809,0.2381 -0.2381,0.77206 0,1.01016 0.23809,0.23809 0.77205,-0.2381 1.01015,0 0.23809,0.23809 -0.2381,0.77205 0,1.01015 0.23809,0.2381 0.70898,-0.15058 1.01015,0 0.42592,0.21296 0.58424,0.79719 1.01015,1.01015 0.30117,0.15059 0.77206,-0.23809 1.01016,0 0.23809,0.2381 -0.2381,0.77206 0,1.01016 0.23809,0.23809 0.77205,-0.2381 1.01015,0 0.23809,0.23809 -0.15059,0.70898 0,1.01015 0.60609,1.21218 2.42436,1.81827 3.03046,3.03046 0.15058,0.30116 -0.15059,0.70898 0,1.01015 0.42591,0.85183 1.59438,1.16847 2.0203,2.0203 0.15059,0.30117 -0.15058,0.70899 0,1.01016 0.21296,0.42591 0.79719,0.58423 1.01015,1.01015 0.30117,0.60234 -0.47619,1.54411 0,2.0203 0.2381,0.2381 0.77206,-0.23809 1.01016,0 0.50507,0.50508 -0.50508,2.52538 0,3.03046 0.23809,0.2381 0.77205,-0.23809 1.01015,0 0.23809,0.2381 -0.2381,0.77206 0,1.01015 0.23809,0.2381 0.77206,-0.23809 1.01015,0 0.0325,0.0325 0,2.78547 0,3.03046 0,6.39763 0,12.79527 0,19.1929 0,11.44839 0,22.89679 0,34.34519 0,0.47628 0.0458,5.00498 0,5.05076 -0.23809,0.23809 -0.77206,-0.2381 -1.01015,0 -0.47619,0.47619 0.47619,1.54411 0,2.0203 -0.2381,0.2381 -0.77206,-0.23809 -1.01015,0 0,0.33672 0,0.67344 0,1.01016 0,0.33671 0.23809,0.77205 0,1.01015 -0.2381,0.23809 -0.77206,-0.2381 -1.01016,0 -0.47619,0.47619 0.47619,1.54411 0,2.0203 -0.23809,0.2381 -0.77205,-0.23809 -1.01015,0 -0.47619,0.47619 0.47619,1.54412 0,2.02031 -0.23809,0.23809 -0.77206,-0.2381 -1.01015,0 -0.24308,0.24307 0.24307,3.79753 0,4.04061 -0.2381,0.23809 -0.77206,-0.2381 -1.01015,0 -0.2381,0.23809 0,0.67343 0,1.01015 0,0.33672 0.23809,0.77206 0,1.01015 -0.2381,0.2381 -0.77206,-0.23809 -1.01016,0 -0.47619,0.47619 0.47619,1.54412 0,2.02031 -0.23809,0.23809 -0.77205,-0.2381 -1.01015,0 -0.47619,0.47619 0.47619,1.54411 0,2.0203 -0.23809,0.2381 -0.77206,-0.23809 -1.01015,0 -0.24308,0.24308 0.24307,3.79754 0,4.04061 -1.34687,1.34687 -1.01015,-1.68358 -1.01015,1.01016 0,0.33671 0,0.67343 0,1.01015 0,0.33672 0.23809,0.77206 0,1.01015 -0.47619,0.47619 -1.54412,-0.47619 -2.02031,0 -0.47619,0.47619 0.30117,1.41797 0,2.02031 -0.21296,0.42591 -0.79719,0.58423 -1.01015,1.01015 -0.20026,0.40052 0.20651,2.82395 0,3.03046 -0.2381,0.23809 -0.70899,-0.15059 -1.01015,0 -4.20402,2.102 1.07988,-0.0697 -1.01016,2.0203 -0.23809,0.2381 -0.77205,-0.23809 -1.01015,0 -0.23809,0.2381 0.2381,0.77206 0,1.01016 -0.23809,0.23809 -0.77206,-0.2381 -1.01015,0 -0.47619,0.47619 0.47619,1.54411 0,2.0203 -0.2381,0.2381 -0.77206,-0.2381 -1.01015,0 -0.2381,0.2381 0.15058,0.70898 0,1.01015 -0.21296,0.42592 -0.7972,0.58424 -1.01016,1.01016 -0.40406,0.80812 0.40406,2.22233 0,3.03045 -0.21296,0.42592 -0.79719,0.58424 -1.01015,1.01016 -0.15058,0.30116 0,0.67343 0,1.01015 0,0.33672 0,0.67343 0,1.01015 0,2.02031 0,4.04061 0,6.06092 0,0.24498 -0.0325,2.99797 0,3.03045 0.2381,0.2381 0.77206,-0.23809 1.01015,0 0.2381,0.2381 -0.23809,0.77206 0,1.01016 0.2381,0.23809 0.77206,-0.2381 1.01016,0 0.23809,0.23809 -0.15059,0.70898 0,1.01015 2.102,4.20401 -0.0697,-1.07989 2.0203,1.01015 0.2381,0.2381 -0.23809,0.77206 0,1.01015 0.2381,0.2381 0.77206,-0.23809 1.01015,0 0.2381,0.2381 -0.23809,0.77206 0,1.01016 0.2381,0.23809 0.77206,-0.2381 1.01016,0 0.47619,0.47619 -0.47619,1.54411 0,2.0203 0.23809,0.2381 0.70898,-0.15058 1.01015,0 0.42592,0.21296 0.58423,0.79719 1.01015,1.01015 0.60234,0.30117 1.54412,-0.47619 2.02031,0 0.47619,0.47619 -0.47619,1.54412 0,2.02031 0.50507,0.50508 2.52538,-0.50508 3.03045,0 0.2381,0.23809 -0.23809,0.77206 0,1.01015 1.35212,1.35211 0.6682,-1.35211 2.02031,0 0.23809,0.2381 -0.2381,0.77206 0,1.01015 0.23809,0.2381 0.70898,-0.15058 1.01015,0 0.42592,0.21296 0.58424,0.7972 1.01015,1.01016 0.30117,0.15058 0.67344,0 1.01016,0 0.33671,0.33671 0.58423,0.79719 1.01015,1.01015 0.60234,0.30117 1.54411,-0.47619 2.0203,0 0.2381,0.23809 -0.23809,0.77206 0,1.01015 0.50508,0.50508 2.52539,-0.50507 3.03046,0 0.2381,0.2381 -0.23809,0.77206 0,1.01015 0.47619,0.47619 1.41797,-0.30117 2.02031,0 0.42591,0.21296 0.58423,0.7972 1.01015,1.01016 0.60234,0.30117 1.54411,-0.47619 2.0203,0 0.2381,0.23809 -0.23809,0.77205 0,1.01015 0.2381,0.23809 0.67344,0 1.01016,0 2.35702,0 4.71404,0 7.07106,0 2.35703,0 4.71405,0 7.07107,0 0.33672,0 0.77206,0.23809 1.01015,0 0.2381,-0.2381 -0.15058,-0.70898 0,-1.01015 0.21296,-0.42592 0.7972,-0.58424 1.01016,-1.01016 0.15058,-0.30117 -0.2381,-0.77205 0,-1.01015 0.47619,-0.47619 1.54411,0.47619 2.0203,0 0,-2.69374 -0.33672,0.33672 1.01016,-1.01015 0.23809,-0.2381 -0.15059,-0.70898 0,-1.01015 0.21295,-0.42592 0.67343,-0.67344 1.01015,-1.01016 0.33672,-0.33671 0.58423,-0.79719 1.01015,-1.01015 1.39336,-0.69668 0.90355,1.22335 2.02031,-1.01015 0.30116,-0.60234 -0.4762,-1.54412 0,-2.02031 0.23809,-0.23809 0.77205,0.2381 1.01015,0 0,-2.69374 -0.33672,0.33672 1.01015,-1.01015 0.2381,-0.23809 -0.23809,-0.77206 0,-1.01015 0.2381,-0.2381 0.77206,0.23809 1.01015,0 0.47619,-0.47619 -0.47619,-1.54412 0,-2.02031 0.2381,-0.23809 0.77206,0.2381 1.01016,0 0.50507,-0.50507 -0.50508,-2.52538 0,-3.03045 0.23809,-0.2381 0.77205,0.23809 1.01015,0 0.0458,-0.0458 0,-4.57448 0,-5.05077 0,-0.33671 -0.2381,-0.77205 0,-1.01015 0.23809,-0.23809 0.77206,0.2381 1.01015,0 0.47619,-0.47619 -0.47619,-1.54411 0,-2.0203 0.2381,-0.2381 0.77206,0.23809 1.01015,0 0.47619,-0.47619 -0.47619,-1.54412 0,-2.02031 0.2381,-0.23809 0.77206,0.2381 1.01016,0 0.0325,-0.0325 0,-2.78547 0,-3.03046 0,-0.33671 0,-0.67343 0,-1.01015 0,-0.33672 -0.33672,-1.01015 0,-1.01015 0.33671,0 0,1.34687 0,1.01015 0,-1.01015 0,-2.0203 0,-3.03046 0,-2.69374 0,-5.38748 0,-8.08122 0,-0.37096 -0.0406,-3.99996 0,-4.04061 0.23809,-0.23809 0.77205,0.2381 1.01015,0 0.47619,-0.47619 -0.47619,-1.54411 0,-2.0203 0.23809,-0.2381 0.77206,0.23809 1.01015,0 0.24307,-0.24308 -0.24307,-3.79754 0,-4.04061 0.2381,-0.2381 0.77206,0.23809 1.01015,0 0.50508,-0.50508 -0.50507,-2.52538 0,-3.03046 0.2381,-0.2381 0.77206,0.23809 1.01016,0 0.23809,-0.2381 -0.2381,-0.77206 0,-1.01015 0.23809,-0.2381 0.77205,0.23809 1.01015,0 0.24307,-0.24308 -0.24308,-3.79754 0,-4.04061 0.23809,-0.2381 0.70898,0.15058 1.01015,0 4.20401,-2.10201 -1.07989,0.0697 1.01015,-2.02031 0.2381,-0.23809 0.77206,0.2381 1.01016,0 0.23809,-0.23809 0,-0.67343 0,-1.01015 0,-0.33672 0,-0.67344 0,-1.01015 0,-0.33672 0,-0.67344 0,-1.01016 0,-0.33671 -0.2381,-0.77205 0,-1.01015 0.23809,-0.23809 0.77205,0.2381 1.01015,0 0.50507,-0.50508 -0.50508,-2.52538 0,-3.03046 0.23809,-0.23809 0.77206,0.2381 1.01015,0 0.2381,-0.23809 -0.15058,-0.70898 0,-1.01015 1.11675,-2.2335 0.62695,-0.31347 2.02031,-1.01015 4.20401,-2.10201 -1.07989,0.0697 1.01015,-2.02031 0.23809,-0.23809 0.77206,0.2381 1.01015,0 0.5324,-0.53239 0.47776,-1.4879 1.01015,-2.0203 0.2381,-0.2381 0.77206,0.23809 1.01016,0 0.23809,-0.2381 -0.2381,-0.77206 0,-1.01015 0.23809,-0.2381 0.77205,0.23809 1.01015,0 0.23809,-0.2381 -0.2381,-0.77206 0,-1.01016 0.23809,-0.23809 0.67343,0 1.01015,0 0.33672,0 0.77206,0.2381 1.01015,0 0.2381,-0.23809 -0.23809,-0.77205 0,-1.01015 0.2381,-0.23809 0.77206,0.2381 1.01016,0 0.23809,-0.23809 -0.2381,-0.77206 0,-1.01015 0.23809,-0.2381 0.77205,0.23809 1.01015,0 0.23809,-0.2381 -0.2381,-0.77206 0,-1.01015 0.23809,-0.2381 0.77206,0.23809 1.01015,0 0.2381,-0.2381 -0.15058,-0.70899 0,-1.01016 0.21296,-0.42591 0.67344,-0.67343 1.01015,-1.01015 0.33672,-0.33672 0.58424,-0.79719 1.01016,-1.01015 0.30117,-0.15059 0.77205,0.23809 1.01015,0 0.23809,-0.2381 -0.2381,-0.77206 0,-1.01015 0.23809,-0.2381 0.77206,0.23809 1.01015,0 0.2381,-0.2381 0,-0.67344 0,-1.01016 0,-0.33671 -0.23809,-0.77205 0,-1.01015 0.2381,-0.23809 0.70899,0.15058 1.01015,0 0.42592,-0.21296 0.58424,-0.79719 1.01016,-1.01015 0.30117,-0.15059 0.77205,0.23809 1.01015,0 0.23809,-0.2381 -0.15059,-0.70899 0,-1.01015 0.21296,-0.42592 0.67343,-0.67344 1.01015,-1.01016 0.33672,-0.33671 0.58424,-0.79719 1.01015,-1.01015 0.30117,-0.15058 0.77206,0.2381 1.01016,0 0.23809,-0.2381 -0.2381,-0.77206 0,-1.01015 0.23809,-0.2381 0.77205,0.23809 1.01015,0 0.23809,-0.2381 -0.15059,-0.70899 0,-1.01015 0.60609,-1.21219 2.42437,-1.81828 3.03046,-3.03046 0.30117,-0.60234 -0.47619,-1.54412 0,-2.02031 0.23809,-0.23809 0.77205,0.2381 1.01015,0 0.2381,-0.23809 -0.2381,-0.77206 0,-1.01015 0.47619,-0.47619 1.54411,0.47619 2.0203,0 0.50508,-0.50508 -0.50507,-2.52538 0,-3.03046 0.2381,-0.23809 0.77206,0.2381 1.01016,0 0.23809,-0.23809 -0.2381,-0.77206 0,-1.01015 0.23809,-0.2381 0.77205,0.23809 1.01015,0 0.2381,-0.2381 -0.2381,-0.77206 0,-1.01015 0.47619,-0.47619 1.41797,0.30117 2.02031,0 0.85183,-0.42592 1.16846,-1.59439 2.0203,-2.02031 0.30117,-0.15058 0.77206,0.2381 1.01015,0 0.2381,-0.23809 -0.15058,-0.70898 0,-1.01015 0.21296,-0.42592 0.7972,-0.58424 1.01016,-1.01015 0.15058,-0.30117 -0.2381,-0.77206 0,-1.01016 0.23809,-0.23809 0.70898,0.15059 1.01015,0 0.42592,-0.21295 0.58423,-0.79719 1.01015,-1.01015 0.30117,-0.15058 0.77206,0.2381 1.01015,0 0.2381,-0.23809 -0.15058,-0.70898 0,-1.01015 0.21296,-0.42592 0.7972,-0.58424 1.01016,-1.01015 0.15058,-0.30117 -0.2381,-0.77206 0,-1.01016 0.47619,-0.47619 1.54411,0.47619 2.0203,0 0.47619,-0.47619 -0.47619,-1.54411 0,-2.0203 0.2381,-0.2381 0.77206,0.23809 1.01015,0 0.2381,-0.2381 -0.23809,-0.77206 0,-1.01015 0.2381,-0.2381 0.77206,0.23809 1.01016,0 2.09004,-2.09005 -3.19386,0.0817 1.01015,-2.02031 0.30117,-0.15058 0.77206,0.2381 1.01015,0 0.2381,-0.23809 -0.15058,-0.70898 0,-1.01015 0.21296,-0.42592 0.79719,-0.58424 1.01015,-1.01015 0.30117,-0.60234 -0.47619,-1.54412 0,-2.02031 0.2381,-0.23809 0.70899,0.15059 1.01016,0 4.20401,-2.10201 -1.07989,0.0697 1.01015,-2.0203 0.23809,-0.2381 0.77206,0.23809 1.01015,0 0.47619,-0.47619 -0.47619,-1.54412 0,-2.02031 0.2381,-0.23809 0.77206,0.2381 1.01015,0 0.2381,-0.23809 -0.23809,-0.77206 0,-1.01015 0.2381,-0.2381 0.70899,0.15058 1.01016,0 0.42591,-0.21296 0.58423,-0.7972 1.01015,-1.01015 0.30117,-0.15059 0.77206,0.23809 1.01015,0 0.2381,-0.2381 -0.15058,-0.70899 0,-1.01016 2.10201,-4.20401 -0.0697,1.07989 2.02031,-1.01015 0.23809,-0.23809 -0.2381,-0.77206 0,-1.01015 0.23809,-0.2381 0.77205,0.23809 1.01015,0 0.23809,-0.2381 -0.15059,-0.70898 0,-1.01015 0.21296,-0.42592 0.67343,-0.67344 1.01015,-1.01016 0.33672,-0.33671 0.58424,-0.79719 1.01015,-1.01015 0.30117,-0.15058 0.77206,0.2381 1.01016,0 0.47619,-0.47619 -0.47619,-1.54411 0,-2.0203 0.50507,-0.50508 2.52538,0.50507 3.03045,0 0.2381,-0.2381 -0.23809,-0.77206 0,-1.01016 0.47619,-0.47619 1.54412,0.47619 2.02031,0 0.23809,-0.23809 -0.2381,-0.77205 0,-1.01015 0.47619,-0.47619 1.54411,0.47619 2.0203,0 0.2381,-0.23809 -0.23809,-0.77206 0,-1.01015 0.2381,-0.2381 0.70899,0.15058 1.01016,0 0.42591,-0.21296 0.58423,-0.7972 1.01015,-1.01015 0.30117,-0.15059 0.77206,0.23809 1.01015,0 0.2381,-0.2381 -0.23809,-0.77206 0,-1.01016 0.2381,-0.23809 0.77206,0.2381 1.01015,0 0.2381,-0.23809 -0.15058,-0.70898 0,-1.01015 0.21296,-0.42592 0.7972,-0.58423 1.01016,-1.01015 0.15058,-0.30117 -0.2381,-0.77206 0,-1.01015 0.23809,-0.2381 0.67343,0 1.01015,0 0.33672,0 0.77206,0.23809 1.01015,0 0.47619,-0.4762 -0.30117,-1.41797 0,-2.02031 0.21296,-0.42592 0.7972,-0.58423 1.01015,-1.01015 0.15059,-0.30117 -0.23809,-0.77206 0,-1.01015 2.09005,-2.09005 -0.0817,3.19386 2.02031,-1.01016 0.30117,-0.60234 -0.47619,-1.54411 0,-2.0203 0.23809,-0.2381 0.77206,0.23809 1.01015,0 9.7e-4,-9.7e-4 -0.002,-3.02588 0,-3.03046 0.15059,-0.45175 0.7972,-0.58424 1.01015,-1.01015 0.13281,-0.26561 0,-3.51238 0,-4.04061 0,-3.36718 0,-6.73435 0,-10.10153 0,-4.37733 0,-8.75465 0,-13.13198 0,-0.33672 0,-0.67344 0,-1.01015 0,-0.33672 0.2381,-0.77206 0,-1.01016 -0.23809,-0.23809 -0.70898,0.15059 -1.01015,0 -0.42592,-0.21296 -0.58423,-0.79719 -1.01015,-1.01015 -0.30117,-0.15058 -0.77206,0.2381 -1.01015,0 -0.2381,-0.23809 0.23809,-0.77206 0,-1.01015 -0.2381,-0.2381 -0.77206,0.23809 -1.01016,0 -0.23809,-0.2381 0.2381,-0.77206 0,-1.01015 -0.23809,-0.2381 -0.70898,0.15058 -1.01015,0 -0.85183,-0.42592 -1.16847,-1.59439 -2.0203,-2.02031 -0.30117,-0.15058 -0.77206,0.2381 -1.01016,0 -0.23809,-0.23809 0.2381,-0.77206 0,-1.01015 -0.23809,-0.2381 -0.77205,0.23809 -1.01015,0 -0.23809,-0.2381 0.2381,-0.77206 0,-1.01015 -0.23809,-0.2381 -0.77206,0.23809 -1.01015,0 -0.2381,-0.2381 0.23809,-0.77206 0,-1.01016 -0.2381,-0.23809 -0.77206,0.2381 -1.01015,0 -0.2381,-0.23809 0.23809,-0.77205 0,-1.01015 -0.47619,-0.47619 -1.54412,0.47619 -2.02031,0 -0.23809,-0.23809 0.15059,-0.70898 0,-1.01015 -0.1341,-0.26821 -2.76225,-2.89636 -3.03046,-3.03046 -0.30117,-0.15058 -0.77205,0.2381 -1.01015,0 -0.23809,-0.23809 0.15059,-0.70898 0,-1.01015 -2.10201,-4.20402 0.0697,1.07989 -2.0203,-1.01015 -0.2381,-0.2381 0.23809,-0.77206 0,-1.01016 -0.2381,-0.23809 -0.77206,0.2381 -1.01016,0 -0.23809,-0.23809 0.2381,-0.77205 0,-1.01015 -0.23809,-0.2381 -0.77205,0.2381 -1.01015,0 -0.23809,-0.2381 0.2381,-0.77206 0,-1.01015 -0.67368,-0.67369 -1.34662,0.67368 -2.0203,0 -0.2381,-0.2381 0.23809,-0.77206 0,-1.01015 -0.47619,-0.4762 -1.54412,0.47619 -2.02031,0 -0.23809,-0.2381 0.2381,-0.77206 0,-1.01016 -0.50508,-0.50507 -2.52538,0.50508 -3.03046,0 -0.23809,-0.23809 0.2381,-0.77205 0,-1.01015 -0.23809,-0.2381 -0.77205,0.2381 -1.01015,0 -0.23809,-0.2381 0.2381,-0.77206 0,-1.01015 -0.47619,-0.47619 -1.54411,0.47619 -2.0203,0 -0.47619,-0.47619 0.47619,-1.54412 0,-2.02031 -0.47619,-0.47619 -1.54412,0.47619 -2.02031,0 -2.09004,-2.09004 3.19386,0.0817 -1.01015,-2.0203 -0.60234,-0.30117 -1.54412,0.47619 -2.02031,0 -0.23809,-0.2381 0.15059,-0.70899 0,-1.01016 -2.102,-4.20401 0.0697,1.07989 -2.0203,-1.01015 -0.2381,-0.23809 0.15058,-0.70898 0,-1.01015 -2.10201,-4.20401 0.0697,1.07989 -2.02031,-1.01015 -0.0458,-0.0458 0,-4.57448 0,-5.05077 0,-0.33671 0.2381,-0.77205 0,-1.01015 -0.23809,-0.23809 -0.77205,0.2381 -1.01015,0 -0.23809,-0.23809 0.2381,-0.77206 0,-1.01015 -0.23809,-0.2381 -0.77206,0.23809 -1.01015,0 -0.0458,-0.0458 0,-4.57448 0,-5.05076 0,-1.68359 0,-3.36718 0,-5.05077 0,-0.33671 -0.2381,-0.77205 0,-1.01015 0.23809,-0.23809 0.77206,0.2381 1.01015,0 0.47619,-0.47619 -0.47619,-1.54411 0,-2.0203 0.2381,-0.2381 0.77206,0.23809 1.01015,0 0.20651,-0.20652 -0.20026,-2.62994 0,-3.03046 0.21296,-0.42592 0.7972,-0.58424 1.01016,-1.01015 0.15058,-0.30117 -0.2381,-0.77206 0,-1.01016 0.23809,-0.23809 0.70898,0.15059 1.01015,0 4.20401,-2.102 -1.07989,0.0697 1.01015,-2.0203 0.2381,-0.2381 0.77206,0.23809 1.01015,0 0.47619,-0.47619 -0.30117,-1.41797 0,-2.02031 2.10201,-4.20401 -0.0697,1.07989 2.02031,-1.01015 0.23809,-0.23809 -0.2381,-0.77206 0,-1.01015 0.23809,-0.2381 0.77206,0.23809 1.01015,0 0.2381,-0.2381 -0.23809,-0.77206 0,-1.01015 0.47619,-0.47619 1.41797,0.30116 2.02031,0 0.42591,-0.21296 0.58423,-0.7972 1.01015,-1.01016 0.60234,-0.30117 1.41796,0.30117 2.0203,0 0.42592,-0.21296 0.58424,-0.79719 1.01016,-1.01015 0.60233,-0.30117 1.41796,0.30117 2.0203,0 0.42592,-0.21296 0.58424,-0.79719 1.01015,-1.01015 0.30117,-0.15059 0.67344,0 1.01016,0 0.33671,0 0.67343,0 1.01015,0 2.0203,0 4.04061,0 6.06091,0 2.02031,0 4.04061,0 6.06092,0 0.33672,0 0.67343,0 1.01015,0 0.33672,0 0.70899,-0.15059 1.01015,0 0.85184,0.42592 1.16847,1.59439 2.02031,2.0203 0.54799,0.274 3.76421,-0.2764 4.04061,0 0.23809,0.2381 -0.2381,0.77206 0,1.01016 0.23809,0.23809 0.70898,-0.15059 1.01015,0 0.42592,0.21295 0.58424,0.79719 1.01015,1.01015 0.30117,0.15058 0.70899,-0.15059 1.01016,0 3.35025,3.35025 -0.95238,-0.47619 2.0203,1.01015 0.42592,0.21296 0.58424,0.79719 1.01015,1.01015 0.548,0.274 3.76422,-0.2764 4.04062,0 0.23809,0.2381 -0.2381,0.77206 0,1.01016 0.47619,0.47619 1.41796,-0.30117 2.0203,0 0.85184,0.42591 1.16847,1.59438 2.02031,2.0203 0.60233,0.30117 1.54411,-0.47619 2.0203,0 0.2381,0.2381 -0.23809,0.77206 0,1.01015 1.35211,1.35212 0.66819,-1.35211 2.02031,0 0.23809,0.2381 -0.2381,0.77206 0,1.01016 0.47619,0.47619 1.54411,-0.47619 2.0203,0 2.09004,2.09004 -3.19386,-0.0817 1.01015,2.0203 0.30117,0.15059 0.70899,-0.15058 1.01016,0 0.42591,0.21296 0.58423,0.79719 1.01015,1.01015 0.60234,0.30117 1.54411,-0.47619 2.0203,0 0.2381,0.2381 -0.23809,0.77206 0,1.01016 0.47619,0.47619 1.54412,-0.47619 2.02031,0 0.23809,0.23809 -0.2381,0.77205 0,1.01015 0.23809,0.23809 0.70898,-0.15059 1.01015,0 0.42592,0.21296 0.58424,0.79719 1.01015,1.01015 0.60234,0.30117 1.54412,-0.47619 2.02031,0 0.23809,0.2381 -0.2381,0.77206 0,1.01015 0.47619,0.47619 1.54411,-0.47619 2.0203,0 0.2381,0.2381 -0.23809,0.77206 0,1.01016 0.47619,0.47619 1.54412,-0.47619 2.02031,0 0.23809,0.23809 -0.2381,0.77205 0,1.01015 0.24307,0.24307 3.79753,-0.24308 4.04061,0 0.23809,0.23809 -0.2381,0.77206 0,1.01015 0.50508,0.50508 2.52538,-0.50507 3.03046,0 0.23809,0.2381 -0.2381,0.77206 0,1.01015 0.50507,0.50508 2.52538,-0.50507 3.03045,0 0.2381,0.2381 -0.23809,0.77206 0,1.01016 0.47619,0.47619 1.54412,-0.47619 2.02031,0 0.23809,0.23809 -0.2381,0.77205 0,1.01015 0.23809,0.23809 0.67343,0 1.01015,0 1.34687,0 2.69374,0 4.04061,0 7.07107,0 14.14214,0 21.21321,0 0.7026,0 4.68545,-0.18265 5.05076,0 0.42592,0.21296 0.58423,0.79719 1.01015,1.01015 0.60234,0.30117 1.41797,-0.30117 2.02031,0 3.08052,1.54026 -1.84752,0.80081 3.03045,2.02031 4.59851,0 0.0578,-0.47619 3.03046,1.01015 0.30117,0.15058 0.69072,-0.10648 1.01015,0 0.67344,0.33672 1.34687,0.67343 2.02031,1.01015 0.33672,0 0.69071,-0.10648 1.01015,0 0.71429,0.2381 1.28986,0.82754 2.02031,1.01015 0.65332,0.16334 1.38142,-0.21295 2.0203,0 0.45176,0.15059 0.58424,0.7972 1.01015,1.01016 0.60234,0.30117 1.41797,-0.30117 2.02031,0 0.42592,0.21296 0.58423,0.79719 1.01015,1.01015 0.30117,0.15058 0.77206,-0.2381 1.01015,0 0.2381,0.23809 -0.30117,0.85957 0,1.01015 0.60234,0.30117 1.41797,-0.30117 2.02031,0 0.30117,0.15059 -0.2381,0.77206 0,1.01015 0.5324,0.5324 1.39383,0.59251 2.0203,1.01016 0.39622,0.26414 0.61394,0.74601 1.01016,1.01015 0.62647,0.41765 1.4879,0.47775 2.0203,1.01015 0.5324,0.5324 0.47776,1.48791 1.01015,2.02031 0.2381,0.23809 0.67344,0 1.01016,0 0.33671,0.67343 0.47775,1.48791 1.01015,2.0203 2.09004,2.09004 -0.0817,-3.19386 2.0203,1.01015 0.15059,0.30117 -0.23809,0.77206 0,1.01016 0.2381,0.23809 0.70899,-0.15059 1.01016,0 0.2682,0.1341 2.89635,2.76225 3.03045,3.03046 0.15059,0.30116 -0.23809,0.77205 0,1.01015 1.23035,1.23035 2.2569,0.47318 3.03046,2.0203 1.24398,2.48796 -2.9322,-0.9119 1.01016,3.03046 0.23809,0.2381 0.77205,-0.23809 1.01015,0 0.47619,0.47619 -0.30117,1.41797 0,2.02031 0.21296,0.42591 0.79719,0.58423 1.01015,1.01015 0.15058,0.30117 -0.15058,0.70898 0,1.01015 0.21296,0.42592 0.79719,0.58424 1.01015,1.01015 0.15059,0.30117 -0.23809,0.77206 0,1.01016 0.2381,0.23809 0.77206,-0.2381 1.01016,0 0.24307,0.24307 -0.24308,3.79753 0,4.04061 0.23809,0.23809 0.77205,-0.2381 1.01015,0 0.0325,0.0325 0,2.78546 0,3.03045 0,2.35703 0,4.71405 0,7.07107 0,1.01015 -0.245,2.05047 0,3.03046 0.18261,0.73044 0.77206,1.30602 1.01015,2.0203 0.10648,0.31944 -0.23809,0.77206 0,1.01016 0.2381,0.23809 0.77206,-0.2381 1.01015,0 0.47619,0.47619 -0.30117,1.41796 0,2.0203 0.21296,0.42592 0.7972,0.58424 1.01016,1.01015 0.30116,0.60234 -0.4762,1.54412 0,2.02031 0.23809,0.23809 0.77205,-0.2381 1.01015,0 0.23809,0.23809 -0.2381,0.77206 0,1.01015 0.23809,0.2381 0.77206,-0.23809 1.01015,0 0.47619,0.47619 -0.30117,1.41797 0,2.02031 0.21296,0.42591 0.79719,0.58423 1.01015,1.01015 0.15059,0.30117 -0.23809,0.77206 0,1.01015 0.2381,0.2381 0.77206,-0.23809 1.01016,0 0.47619,0.47619 -0.47619,1.54412 0,2.02031 0.23809,0.23809 0.77205,-0.2381 1.01015,0 0.23809,0.23809 -0.10648,0.69071 0,1.01015 0.23809,0.71429 0.77206,1.30602 1.01015,2.0203 0.10648,0.31944 -0.23809,0.77206 0,1.01016 0.2381,0.23809 0.85957,-0.30117 1.01015,0 0.30117,0.60234 0,1.34687 0,2.0203 0,0.33672 -0.23809,0.77206 0,1.01015 0.2381,0.2381 0.77206,-0.23809 1.01016,0 0.23809,0.2381 -0.15059,0.70899 0,1.01016 0.21295,0.42592 0.79719,0.58423 1.01015,1.01015 0.15058,0.30117 -0.2381,0.77206 0,1.01015 0.23809,0.2381 0.77206,-0.23809 1.01015,0 0.47619,0.47619 -0.30117,1.41797 0,2.02031 0.21296,0.42592 0.79719,0.58423 1.01015,1.01015 0.15372,0.30742 0,2.57553 0,3.03046 0,2.0203 0,4.04061 0,6.06091 0,0.33672 0,0.67344 0,1.01016 0,0.33671 -0.23809,0.77205 0,1.01015 0.47619,0.47619 1.54412,-0.47619 2.02031,0 0.23809,0.23809 -0.2381,0.77206 0,1.01015 0.23809,0.2381 1.01015,-0.33672 1.01015,0 0,0.33672 -1.34687,0 -1.01015,0 0.67343,0 1.34687,0 2.0203,0"
         style="fill:none;stroke:#000000;stroke-width:1px;stroke-linecap:butt;stroke-linejoin:miter;stroke-opacity:1" />
      <path
         sodipodi:nodetypes="cssssssssssssssssssssssssssssssssssssssssssssssssssssssssssssssssssssssssssssssssssssssssssssssssssscssssscssssssssssssssssssssssssssssssssssssssssssssssssssssssssssssssssssscssssssssssssssssscssssssssssssssssssssssssssssssssssssssssssssssssssssssssssssssssssssssssssssssssssssssssssssssssssssssssssssssssssssssssssssssssssssssssssssssssssssssssssssssssssssssssssssssssscsssssssssssssssssssssssssssssssssssssssssssssssssssssssssssssscssssssssssssssscssssssssssssscsssssssssssssssssssssssssssssssssssssssssssssssssssssssssssssssssssssssssssssssssssssssc"
         id="path2844"
         d="m 342.44172,570.01433 c 1.68358,0 7.40778,-2.02031 9.09137,-2.02031 0.33672,0 0.77206,-0.23809 1.01015,0 0.2381,0.2381 -0.23809,0.77206 0,1.01015 0.67369,0.67369 1.34662,-0.67368 2.02031,0 0.23809,0.2381 -0.2381,0.77206 0,1.01016 0.23809,0.23809 0.77205,-0.2381 1.01015,0 0.23809,0.23809 -0.2381,0.77205 0,1.01015 0.47619,0.47619 1.54411,-0.47619 2.0203,0 0.2381,0.23809 -0.23809,0.77206 0,1.01015 0.2381,0.2381 1.01016,-0.33672 1.01016,0 0,0.33672 -1.34687,0 -1.01016,0 0.67344,0 1.41797,-0.30117 2.02031,0 0.30117,0.15059 0.33672,1.01015 0,1.01015 -0.33672,0 -0.33672,-1.01015 0,-1.01015 0.47619,0 0.58423,0.7972 1.01015,1.01015 0.26561,0.13281 3.51238,0 4.04061,0 1,0 4.02031,0 2.02031,0 -0.67344,0 -2.69374,0 -2.02031,0 2.35702,0 4.71405,0 7.07107,0 0.33672,0 0.67343,0 1.01015,0 0.33672,0 1.01015,-0.33671 1.01015,0 0,0.33672 -1.34687,0 -1.01015,0 0.67344,0 1.34687,0 2.02031,0 0.33671,0 1.01015,-0.33671 1.01015,0 0,1.43105 -4.71405,-2.86209 1.01015,0 0.30117,0.15059 -0.23809,0.77206 0,1.01016 0.47619,0.47619 1.54412,-0.47619 2.02031,0 0.23809,0.23809 -0.2381,0.77205 0,1.01015 0.47619,0.47619 1.54411,-0.47619 2.0203,0 0.2381,0.23809 -0.23809,0.77206 0,1.01015 0.2381,0.2381 0.67344,0 1.01015,0 0.33672,0 0.67344,0 1.01016,0 2.69374,0 5.38748,0 8.08122,0 5.05076,0 10.10152,0 15.15229,0 1.68358,0 3.36717,0 5.05076,0 1,0 4.0203,0 2.0203,0 -0.67343,0 -2.69374,0 -2.0203,0 1.34687,0 2.69374,0 4.04061,0 0.33672,0 1.01015,-0.33672 1.01015,0 0,0.33672 -1.34687,0 -1.01015,0 4.5985,0 0.0578,0.47619 3.03046,-1.01015 0.60234,-0.30117 1.54411,0.47619 2.0203,0 0.2381,-0.2381 -0.23809,-0.77206 0,-1.01015 0.47619,-0.47619 1.54412,0.47619 2.02031,0 0.23809,-0.2381 -0.2381,-0.77206 0,-1.01016 0.47619,-0.47619 1.54411,0.47619 2.0203,0 0.2381,-0.23809 -0.23809,-0.77205 0,-1.01015 0.2381,-0.23809 0.70899,0.15059 1.01015,0 4.20402,-2.102 -1.07988,0.0697 1.01016,-2.0203 0.23809,-0.2381 0.77205,0.23809 1.01015,0 0.23809,-0.2381 -0.2381,-0.77206 0,-1.01016 0.50508,-0.50507 2.52538,0.50508 3.03046,0 0.23809,-0.23809 -0.15059,-0.70898 0,-1.01015 2.102,-4.20401 -0.0697,1.07989 2.0203,-1.01015 0.2381,-0.2381 -0.23809,-0.77206 0,-1.01015 0.24308,-0.24308 3.79754,0.24307 4.04061,0 0.2381,-0.2381 -0.23809,-0.77206 0,-1.01016 0.2381,-0.23809 0.77206,0.2381 1.01015,0 0.2381,-0.23809 -0.23809,-0.77205 0,-1.01015 0.2381,-0.23809 0.70899,0.15059 1.01016,0 0.46778,-0.23389 3.44649,-3.44649 4.04061,-4.04061 0.33672,-0.33672 0.58423,-0.79719 1.01015,-1.01015 0.30117,-0.15059 0.77206,0.23809 1.01015,0 0.2381,-0.2381 -0.23809,-0.77206 0,-1.01015 0.50508,-0.50508 2.52538,0.50507 3.03046,0 0.2381,-0.2381 -0.23809,-0.77206 0,-1.01016 0.2381,-0.23809 0.77206,0.2381 1.01015,0 0.2381,-0.23809 -0.23809,-0.77205 0,-1.01015 0.2381,-0.23809 0.67344,0 1.01016,0 0.33671,0 0.67343,0 1.01015,0 0.33672,0 1.01015,-0.33672 1.01015,0 0,0.33672 -1.34687,0 -1.01015,0 0.67343,0 1.34687,0 2.0203,0 0.33672,0 0.77206,0.2381 1.01016,0 0.23809,-0.23809 -0.2381,-0.77206 0,-1.01015 0.47619,-0.47619 1.54411,0.47619 2.0203,0 0.2381,-0.2381 -0.23809,-0.77206 0,-1.01015 0.0325,-0.0325 2.78547,0 3.03046,0 0.33672,0 1.34687,0 1.01015,0 -0.67343,0 -2.49649,0.47619 -2.0203,0 0.75292,-0.75293 1.99745,-0.75191 3.03045,-1.01016 0.32667,-0.0817 0.77206,0.2381 1.01016,0 0.23809,-0.23809 -0.2381,-0.77205 0,-1.01015 0.50507,-0.50508 2.52538,0.50508 3.03045,0 0.2381,-0.23809 -0.15058,-0.70898 0,-1.01015 0.21296,-0.42592 0.7972,-0.58424 1.01016,-1.01015 0.15058,-0.30117 -0.2381,-0.77206 0,-1.01016 0.23809,-0.23809 0.77205,0.2381 1.01015,0 0.20651,-0.20651 -0.20026,-2.62994 0,-3.03045 0.21296,-0.42592 0.79719,-0.58424 1.01015,-1.01016 0.15059,-0.30117 -0.23809,-0.77205 0,-1.01015 0.2381,-0.23809 0.77206,0.2381 1.01015,0 0.2381,-0.23809 0,-0.67343 0,-1.01015 0,-0.33672 0,-0.67344 0,-1.01015 0,-3.36718 0,-6.73435 0,-10.10153 0,-0.47628 0.0458,-5.00498 0,-5.05076 -0.23809,-0.2381 -0.77205,0.23809 -1.01015,0 -0.47619,-0.47619 0.30117,-1.41797 0,-2.02031 -0.21296,-0.42592 -0.79719,-0.58423 -1.01015,-1.01015 -0.15059,-0.30117 0.23809,-0.77206 0,-1.01015 -2.69374,0 0.33672,0.33671 -1.01015,-1.01016 -0.2381,-0.23809 -0.77206,0.2381 -1.01016,0 -0.47619,-0.47619 0.30117,-1.41796 0,-2.0203 -0.21296,-0.42592 -0.79719,-0.58424 -1.01015,-1.01015 -0.30117,-0.60234 0.47619,-1.54412 0,-2.02031 -0.23809,-0.23809 -0.67343,0 -1.01015,0 0,-0.33672 0.15058,-0.70898 0,-1.01015 -0.21296,-0.42592 -1.34687,-0.67344 -1.01015,-1.01015 0.33671,-0.33672 1.48634,1.01015 1.01015,1.01015 -0.75292,0 -1.30602,-0.77206 -2.02031,-1.01015 -0.31943,-0.10648 -0.77205,0.23809 -1.01015,0 -0.23809,-0.2381 0,-0.67344 0,-1.01016 0,-0.33671 0,-0.67343 0,-1.01015 0,-2.69374 0.33672,0.33672 -1.01015,-1.01015 -0.50508,-0.50508 0.50507,-2.52538 0,-3.03046 -0.47619,-0.47619 -1.54412,0.47619 -2.02031,0 -0.23809,-0.23809 0.2381,-0.77206 0,-1.01015 -0.47619,-0.47619 -1.54411,0.47619 -2.0203,0 -0.2381,-0.2381 0.23809,-0.77206 0,-1.01015 -0.47619,-0.47619 -1.54412,0.47619 -2.02031,0 -0.23809,-0.2381 0.2381,-0.77206 0,-1.01016 -0.50507,-0.50507 -2.52538,0.50508 -3.03045,0 -0.2381,-0.23809 0.23809,-0.77205 0,-1.01015 -0.4762,-0.47619 -1.54412,0.47619 -2.02031,0 -0.47619,-0.47619 0.47619,-1.54411 0,-2.0203 -0.23809,-0.2381 -0.67343,0 -1.01015,0 -0.33672,0 -0.67344,0 -1.01015,0 -1.68359,0 -3.36718,0 -5.05077,0 -0.33672,0 -0.67343,0 -1.01015,0 -0.33672,0 -0.70898,-0.15059 -1.01015,0 -2.4965,1.24824 0.34868,1.01015 -2.02031,1.01015 -0.33672,0 -0.67343,0 -1.01015,0 -0.33672,0 -0.77206,-0.2381 -1.01015,0 -0.2381,0.23809 0.23809,0.77206 0,1.01015 -0.2381,0.2381 -0.67344,0 -1.01016,0 -1.68358,0 -3.36717,0 -5.05076,0 -6.73435,0 -13.4687,0 -20.20305,0 -2.0203,0 -4.04061,0 -6.06091,0 -0.33672,0 -0.67344,0 -1.01016,0 -0.33671,0 -0.70898,0.15059 -1.01015,0 -0.85183,-0.42592 -1.16847,-1.59439 -2.0203,-2.0203 -0.60234,-0.30117 -1.54412,0.47619 -2.02031,0 -0.23809,-0.2381 0.2381,-0.77206 0,-1.01016 -0.47619,-0.47619 -1.54411,0.47619 -2.0203,0 -0.2381,-0.23809 0.23809,-0.77205 0,-1.01015 -0.50508,-0.50508 -2.52539,0.50508 -3.03046,0 -0.50508,-0.50508 0.50507,-2.52538 0,-3.03046 -0.47619,-0.47619 -1.54412,0.47619 -2.02031,0 -0.23809,-0.23809 0,-0.67343 0,-1.01015 0,-0.33672 0,-0.67343 0,-1.01015 0,-3.70389 0,-7.40779 0,-11.11168 0,-0.47628 0.0458,-5.00498 0,-5.05076 -0.23809,-0.2381 -0.77205,0.23809 -1.01015,0 -0.47619,-0.47619 0.30117,-1.41797 0,-2.02031 -0.21296,-0.42592 -0.79719,-0.58423 -1.01015,-1.01015 -0.15059,-0.30117 -0.33672,-1.01015 0,-1.01015 0.33672,0 0,1.34687 0,1.01015 0,-1.34687 0,-2.69374 0,-4.04061 0,-0.45493 0.15371,-2.72303 0,-3.03046 -0.21296,-0.42592 -0.7972,-0.58423 -1.01015,-1.01015 -0.15059,-0.30117 0.23809,-0.77206 0,-1.01015 -0.2381,-0.2381 -0.77206,0.23809 -1.01016,0 -0.23809,-0.2381 0.2381,-0.77206 0,-1.01016 -0.23809,-0.23809 -0.77205,0.2381 -1.01015,0 -0.47619,-0.47619 0.47619,-1.54411 0,-2.0203 -0.2381,-0.2381 -0.77206,0.23809 -1.01015,0 -0.47619,-0.47619 0.47619,-1.54412 0,-2.02031 -0.2381,-0.23809 -0.77206,0.2381 -1.01016,0 -0.23809,-0.23809 0.2381,-0.77205 0,-1.01015 -0.20651,-0.20651 -2.62994,0.20026 -3.03045,0 -0.42592,-0.21296 -0.58424,-0.79719 -1.01016,-1.01015 -0.60233,-0.30117 -1.54411,0.47619 -2.0203,0 -0.2381,-0.2381 0.23809,-0.77206 0,-1.01015 -0.47619,-0.47619 -1.54412,0.47619 -2.02031,0 0,-2.69374 0.33672,0.33671 -1.01015,-1.01016 -2.09004,-2.09004 3.19386,0.0817 -1.01015,-2.0203 -0.548,-0.274 -3.76421,0.2764 -4.04061,0 -0.2381,-0.2381 0.23809,-0.77206 0,-1.01015 -0.2381,-0.2381 -0.67344,0 -1.01015,0 -0.33672,0 -0.67344,0 -1.01016,0 -4.04061,0 -8.08122,0 -12.12183,0 -1.68358,0 -3.36717,0 -5.05076,0 -0.33672,0 -0.77206,-0.2381 -1.01015,0 -0.2381,0.23809 0.23809,0.77205 0,1.01015 -0.2381,0.23809 -0.77206,-0.2381 -1.01015,0 -0.2381,0.23809 0.23809,0.77206 0,1.01015 -0.2381,0.2381 -0.77206,-0.23809 -1.01016,0 -0.23809,0.2381 0.2381,0.77206 0,1.01015 -0.47619,0.47619 -1.54411,-0.47619 -2.0203,0 -0.67369,0.67369 0.67368,1.34663 0,2.02031 -0.2381,0.23809 -0.77206,-0.2381 -1.01015,0 -0.2381,0.23809 0.23809,0.77206 0,1.01015 -2.69374,0 0.33671,-0.33672 -1.01016,1.01015 -0.47619,0.47619 -1.54411,-0.47619 -2.0203,0 -0.67369,0.67369 0.67368,1.34663 0,2.02031 -0.2381,0.23809 -0.77206,-0.2381 -1.01015,0 -0.2381,0.23809 0.23809,0.77206 0,1.01015 -0.2381,0.2381 -0.77206,-0.23809 -1.01016,0 -0.47619,0.47619 0.47619,1.54412 0,2.02031 -0.23809,0.23809 -0.70898,-0.15059 -1.01015,0 -0.42592,0.21296 -0.67343,0.67343 -1.01015,1.01015 -0.33672,0.33672 -0.74601,0.61394 -1.01015,1.01015 -0.41765,0.62647 -0.47776,1.48791 -1.01016,2.02031 -0.23809,0.23809 -0.77205,-0.2381 -1.01015,0 -0.2381,0.23809 0.15058,0.70898 0,1.01015 -0.21296,0.42592 -0.79719,0.58423 -1.01015,1.01015 -0.15059,0.30117 0.23809,0.77206 0,1.01015 -0.2381,0.2381 -0.77206,-0.23809 -1.01015,0 -0.2381,0.2381 0.23809,0.77206 0,1.01016 -0.2381,0.23809 -0.77206,-0.2381 -1.01016,0 -0.20651,0.20651 0.20026,2.62994 0,3.03046 -0.21296,0.42591 -0.79719,0.58423 -1.01015,1.01015 -0.20026,0.40051 0.20651,2.82394 0,3.03046 -0.2381,0.23809 -0.77206,-0.2381 -1.01015,0 -0.2381,0.23809 0,0.67343 0,1.01015 0,0.33672 0,0.67343 0,1.01015 0,5.05076 0,10.10153 0,15.15229 0,4.04061 0,8.08122 0,12.12183 0,2.0203 0,4.04061 0,6.06091 0,0.33672 0.33671,1.01016 0,1.01016 -0.33672,0 0,-1.34687 0,-1.01016 0,0.67344 -0.21296,1.38143 0,2.02031 0.15058,0.45175 0.79719,0.58423 1.01015,1.01015 0.30117,0.60234 -0.47619,1.54412 0,2.02031 0.2764,0.2764 3.49261,-0.274 4.04061,0 0.42592,0.21296 0.58423,0.79719 1.01015,1.01015 0.30117,0.15058 0.77206,-0.2381 1.01016,0 0.23809,0.23809 -0.2381,0.77206 0,1.01015 0.23809,0.2381 0.77205,-0.23809 1.01015,0 0.23809,0.2381 -0.2381,0.77206 0,1.01015 0.47619,0.4762 1.54411,-0.47619 2.0203,0 0.2381,0.2381 -0.23809,0.77206 0,1.01016 0.2381,0.23809 0.77206,-0.2381 1.01016,0 0.23809,0.23809 -0.2381,0.77205 0,1.01015 0.47619,0.47619 1.41796,-0.30117 2.0203,0 0.85184,0.42592 1.16847,1.59439 2.02031,2.0203 0.30116,0.15059 0.70898,-0.15058 1.01015,0 2.04301,1.02151 0.32393,2.34424 1.01015,3.03046 0.2381,0.2381 0.77206,-0.23809 1.01015,0 0.47619,0.47619 -0.47619,1.54412 0,2.02031 2.09004,2.09004 -0.0817,-3.19386 2.02031,1.01015 0.1328,0.26561 0,3.51238 0,4.04061 0,0.47629 0.0458,5.00498 0,5.05076 -0.2381,0.2381 -0.77206,-0.23809 -1.01015,0 -0.2381,0.2381 0.23809,0.77206 0,1.01016 -0.2381,0.23809 -0.77206,-0.2381 -1.01016,0 -2.09004,2.09004 3.19386,-0.0817 -1.01015,2.0203 -0.60234,0.30117 -1.54411,-0.47619 -2.0203,0 -0.2381,0.2381 0.23809,0.77206 0,1.01015 -0.47619,0.47619 -1.54412,-0.47619 -2.02031,0 -0.23809,0.2381 0.15059,0.70899 0,1.01016 -0.42592,0.85183 -1.59439,1.16847 -2.0203,2.0203 -0.15059,0.30117 0.23809,0.77206 0,1.01015 -0.2381,0.2381 -0.77206,-0.23809 -1.01016,0 -0.47619,0.47619 0.47619,1.54412 0,2.02031 -0.23809,0.23809 -0.77205,-0.2381 -1.01015,0 -0.23809,0.23809 0.2381,0.77206 0,1.01015 -0.23809,0.2381 -0.70898,-0.15058 -1.01015,0 -0.42592,0.21296 -0.58424,0.79719 -1.01015,1.01015 -0.40052,0.20026 -2.82395,-0.20651 -3.03046,0 -0.2381,0.2381 0.23809,0.77206 0,1.01016 -0.24308,0.24307 -3.79754,-0.24308 -4.04061,0 -0.2381,0.23809 0.23809,0.77205 0,1.01015 -2.09004,2.09004 0.0817,-3.19386 -2.02031,1.01015 -0.30117,0.60234 0.47619,1.54412 0,2.02031 -0.23809,0.23809 -0.77205,-0.2381 -1.01015,0 -0.47619,0.47619 0.47619,1.54411 0,2.0203 -0.2381,0.2381 -0.67344,0 -1.01015,0 -0.33672,0 -0.67344,0 -1.01016,0 -0.33671,0 -0.67343,0 -1.01015,0 -0.33672,0 -0.77206,0.2381 -1.01015,0 -0.2381,-0.23809 0,-0.67343 0,-1.01015 0,-0.33672 0,-0.67344 0,-1.01015 0,-0.33672 0.23809,-0.77206 0,-1.01016 -0.2381,-0.23809 -0.77206,0.2381 -1.01015,0 -0.47619,-0.47619 0.47619,-1.54411 0,-2.0203 -0.2381,-0.2381 -0.77206,0.23809 -1.01016,0 -0.47619,-0.47619 0.47619,-1.54412 0,-2.02031 -0.0325,-0.0325 -2.78546,0 -3.03045,0 -6.73435,0 -13.4687,0 -20.20305,0 -0.47629,0 -5.00498,0.0458 -5.05077,0 -0.23809,-0.23809 0.2381,-0.77205 0,-1.01015 -0.23809,-0.23809 -0.77205,0.2381 -1.01015,0 -0.47619,-0.47619 0.30117,-1.41797 0,-2.0203 -0.21296,-0.42592 -0.67343,-0.67344 -1.01015,-1.01016 -0.33672,-0.33671 -0.58424,-0.79719 -1.01015,-1.01015 -0.30117,-0.15058 -0.70899,0.15059 -1.01016,0 -0.85183,-0.42592 -1.16847,-1.59439 -2.0203,-2.0203 -0.60234,-0.30117 -1.54412,0.47619 -2.02031,0 -0.23809,-0.2381 0.15059,-0.70899 0,-1.01016 -0.21296,-0.42591 -0.67343,-0.67343 -1.01015,-1.01015 -0.33672,-0.33672 -0.58423,-0.79719 -1.01015,-1.01015 -0.30117,-0.15059 -0.77206,0.23809 -1.01015,0 -0.2381,-0.2381 0.15058,-0.70899 0,-1.01015 -0.21296,-0.42592 -0.7972,-0.58424 -1.01016,-1.01016 -0.30117,-0.60234 0.30117,-1.41796 0,-2.0203 -0.21296,-0.42592 -0.79719,-0.58424 -1.01015,-1.01015 -0.15058,-0.30117 0,-0.67344 0,-1.01016 0,-0.67343 0,-1.34687 0,-2.0203 0,-1.68359 0,-3.36718 0,-5.05076 0,-0.33672 0,-0.67344 0,-1.01016 0,-0.33672 -0.2381,-0.77205 0,-1.01015 0.2381,-0.2381 0.77206,0.2381 1.01015,0 0.2381,-0.2381 -0.23809,-0.77206 0,-1.01015 2.09004,-2.09004 -0.0817,3.19386 2.02031,-1.01016 0.15058,-0.30116 -0.2381,-0.77205 0,-1.01015 0.23809,-0.23809 0.77206,0.2381 1.01015,0 0.2381,-0.23809 -0.23809,-0.77206 0,-1.01015 0.47619,-0.47619 1.41797,0.30117 2.02031,0 4.20401,-2.10201 -1.07989,0.0697 1.01015,-2.02031 0.50507,-0.50507 2.52538,0.50508 3.03046,0 0.23809,-0.23809 -0.2381,-0.77205 0,-1.01015 0.47619,-0.47619 1.41796,0.30117 2.0203,0 0.42592,-0.21296 0.58424,-0.79719 1.01015,-1.01015 0.30117,-0.15059 0.77206,0.23809 1.01016,0 0.23809,-0.2381 -0.15059,-0.70898 0,-1.01015 0.21295,-0.42592 0.67343,-0.67344 1.01015,-1.01016 0.33672,-0.33671 0.67343,-1.34687 1.01015,-1.01015 0.33672,0.33672 -1.01015,1.48634 -1.01015,1.01015 0,-5.10309 0.77633,-0.77632 2.0203,-2.0203 0.2381,-0.2381 0,-0.67344 0,-1.01015 0,-0.33672 0,-0.67344 0,-1.01016 0,-3.36717 0,-6.73435 0,-10.10152 0,-1.34687 0,-2.69374 0,-4.04061 0,-0.33672 0,-1.34687 0,-1.01015 0,0.67343 0,2.69374 0,2.0203 0,-1.01015 0,-2.0203 0,-3.03046 0,-0.33671 0,-0.67343 0,-1.01015 0,-0.33672 -0.23809,-0.77206 0,-1.01015 0.47619,-0.47619 1.54412,0.47619 2.02031,0 0.23809,-0.2381 -0.2381,-0.77206 0,-1.01015 0.47619,-0.47619 1.54411,0.47619 2.0203,0 0.2381,-0.2381 -0.23809,-0.77206 0,-1.01016 0.47619,-0.47619 1.54412,0.47619 2.02031,0 0.23809,-0.23809 -0.15059,-0.70898 0,-1.01015 0.21296,-0.42592 0.79719,-0.58423 1.01015,-1.01015 0.15059,-0.30117 0,-0.67344 0,-1.01015 0,-0.33672 0,-0.67344 0,-1.01016 0,-0.33671 0,-1.34687 0,-1.01015 0,0.67344 0,2.69374 0,2.02031 0,-2.02031 0,-4.04061 0,-6.06092 0,-1.68359 0,-3.36717 0,-5.05076 0,-0.33672 0.2381,-0.77206 0,-1.01015 -0.23809,-0.2381 -0.67343,0 -1.01015,0 -0.33672,0 -0.67344,0 -1.01015,0 -2.02031,0 -4.04061,0 -6.06092,0 -0.33672,0 -0.77206,0.23809 -1.01015,0 -0.0458,-0.0458 0,-4.57448 0,-5.05077 0,-0.33672 0,-1.34687 0,-1.01015 0,5.76918 -0.13695,-1.88336 0,-2.02031 0.50507,-0.50507 2.52538,0.50508 3.03046,0 2.09004,-2.09004 -3.19386,0.0817 1.01015,-2.0203 0.60234,-0.30117 1.54411,0.47619 2.0203,0 0.2381,-0.2381 -0.23809,-0.77206 0,-1.01015 0.2381,-0.2381 0.67344,0 1.01016,0 1.68358,0 3.36717,0 5.05076,0 0.33672,0 0.77206,0.23809 1.01015,0 0.2381,-0.2381 -0.23809,-0.77206 0,-1.01016 0.47619,-0.47619 1.54412,0.4762 2.02031,0 0.47619,-0.47619 -0.30117,-1.41796 0,-2.0203 2.102,-4.20401 -0.0697,1.07989 2.0203,-1.01015 0.68622,-0.68623 -1.03286,-2.00895 1.01015,-3.03046 0.40052,-0.20026 2.82395,0.20651 3.03046,0 0.2381,-0.2381 -0.23809,-0.77206 0,-1.01015 0.2381,-0.2381 0.67344,0 1.01015,0 0.33672,0 0.67344,0 1.01016,0 0.33671,0 0.67343,0 1.01015,0 0.33672,0 1.01015,-0.33672 1.01015,0 0,0.33671 -1.01015,0.33671 -1.01015,0 0,-0.47619 0.58423,-0.7972 1.01015,-1.01016 2.69374,0 -0.33672,0.33672 1.01015,-1.01015 0.2381,-0.23809 0.77206,0.2381 1.01016,0 0.23809,-0.23809 -0.2381,-0.77206 0,-1.01015 0.23809,-0.2381 0.77205,0.23809 1.01015,0 0.23809,-0.2381 -0.15059,-0.70898 0,-1.01015 1.11675,-2.23351 0.62694,-0.31348 2.0203,-1.01016 2.23351,-1.11675 0.31348,-0.62694 1.01016,-2.0203 0.21296,-0.42592 0.79719,-0.58424 1.01015,-1.01015 0.15058,-0.30117 -0.2381,-0.77206 0,-1.01016 0.47619,-0.47619 1.54411,0.47619 2.0203,0 0.2381,-0.23809 -0.23809,-0.77205 0,-1.01015 0.4762,-0.47619 1.54412,0.47619 2.02031,0 0.2381,-0.23809 -0.2381,-0.77206 0,-1.01015 0.47619,-0.47619 1.54411,0.47619 2.02031,0 0.23809,-0.2381 -0.2381,-0.77206 0,-1.01015 0.23809,-0.2381 0.77205,0.23809 1.01015,0 0.23809,-0.2381 -0.2381,-0.77206 0,-1.01016 0.23809,-0.23809 0.70898,0.15059 1.01015,0 0.42592,-0.21296 0.58423,-0.79719 1.01015,-1.01015 0.30117,-0.15058 0.77206,0.2381 1.01016,0 0.67368,-0.67368 -0.67369,-1.34662 0,-2.0203 0.47619,-0.47619 1.41796,0.30117 2.0203,0 0.42592,-0.21296 0.58424,-0.7972 1.01015,-1.01016 0.30117,-0.15058 0.70899,0.15059 1.01016,0 0.42591,-0.21296 0.58423,-0.79719 1.01015,-1.01015 0.30117,-0.15058 0.70898,0.15059 1.01015,0 0.85184,-0.42592 1.16847,-1.59439 2.02031,-2.0203 0.60233,-0.30117 1.41796,0.30117 2.0203,0 0.42592,-0.21296 0.58424,-0.7972 1.01015,-1.01016 0.63491,-0.31745 3.40571,0.31746 4.04061,0 0.42592,-0.21296 0.58424,-0.79719 1.01016,-1.01015 0.30117,-0.15058 0.70898,0.15059 1.01015,0 0.42592,-0.21296 0.58423,-0.79719 1.01015,-1.01015 0.80812,-0.40406 2.22234,0.40406 3.03046,0 0.42592,-0.21296 0.58423,-0.7972 1.01015,-1.01015 2.48796,-1.24398 -0.9119,2.9322 3.03046,-1.01016 0.5324,-0.53239 0.47775,-1.4879 1.01015,-2.0203 0.2381,-0.2381 0.70898,0.15058 1.01015,0 9.52812,-4.76406 -0.22119,-0.18926 4.04061,-3.03046 0.62647,-0.41765 1.39384,-0.59251 2.02031,-1.01015 0.39621,-0.26414 0.58423,-0.7972 1.01015,-1.01015 0.60234,-0.30117 1.54412,0.47619 2.02031,0 0.23809,-0.2381 -0.30117,-0.85957 0,-1.01016 0.9035,-0.45175 2.12695,0.45176 3.03045,0 0.42592,-0.21296 0.58424,-0.79719 1.01016,-1.01015 0.30117,-0.15058 0.70898,0.15058 1.01015,0 0.42592,-0.21296 0.58423,-0.79719 1.01015,-1.01015 0.30743,-0.15371 2.57553,0 3.03046,0 2.69374,0 5.38748,0 8.08122,0 2.02031,0 4.04061,0 6.06092,0 0.33671,0 0.77205,-0.2381 1.01015,0 0.23809,0.23809 -0.2381,0.77206 0,1.01015 0.67368,0.67368 1.34662,-0.67368 2.0203,0 0.2381,0.2381 -0.23809,0.77206 0,1.01015 0.50508,0.50508 2.52538,-0.50507 3.03046,0 0.2381,0.2381 -0.23809,0.77206 0,1.01016 0.2381,0.23809 0.77206,-0.2381 1.01015,0 2.09004,2.09004 -3.19386,-0.0817 1.01016,2.0203 0.60233,0.30117 1.54411,-0.47619 2.0203,0 0.2381,0.2381 -0.23809,0.77206 0,1.01015 0.47619,0.47619 1.54412,-0.47619 2.02031,0 0.23809,0.2381 -0.2381,0.77206 0,1.01016 0.23809,0.23809 0.67343,0 1.01015,0 0,0.33671 -0.2381,0.77205 0,1.01015 0.20651,0.20651 2.62994,-0.20026 3.03046,0 0.42591,0.21296 0.58423,0.79719 1.01015,1.01015 0.80812,0.40406 2.22233,-0.40406 3.03046,0 0.42591,0.21296 0.58423,0.79719 1.01015,1.01015 0.60234,0.30117 1.41797,-0.30117 2.0203,0 0.42592,0.21296 0.58424,0.7972 1.01016,1.01016 0.30117,0.15058 0.77205,-0.2381 1.01015,0 0.23809,0.23809 -0.2381,0.77205 0,1.01015 0.23809,0.23809 0.70898,-0.15059 1.01015,0 0.42592,0.21296 0.67344,0.67343 1.01015,1.01015 0.33672,0.33672 0.7972,0.58424 1.01016,1.01015 0.15058,0.30117 -0.2381,0.77206 0,1.01016 0.47619,0.47619 1.41796,-0.30117 2.0203,0 0.42592,0.21295 0.58424,0.79719 1.01015,1.01015 0.30117,0.15058 0.67344,0 1.01016,0 0.33671,0.33672 0.58423,0.79719 1.01015,1.01015 0.6349,0.31745 3.40571,-0.31745 4.04061,0 0.30117,0.15059 -0.2381,0.77206 0,1.01015 0.23809,0.2381 0.67343,0 1.01015,0 0.33672,0 0.67344,0 1.01015,0 3.7039,0 7.40779,0 11.11168,0 2.02031,0 4.04061,0 6.06092,0 0.33672,0 0.67343,0 1.01015,0 0.33672,0 0.70898,0.15059 1.01015,0 0.42592,-0.21296 0.58424,-0.79719 1.01016,-1.01015 0.30116,-0.15058 0.70898,0.15059 1.01015,0 0.42592,-0.21296 0.67343,-0.67343 1.01015,-1.01015 0.33672,-0.33672 0.79719,-0.58424 1.01015,-1.01015 0.69668,-1.39337 -1.22335,-0.90356 1.01016,-2.02031 2.69374,0 -0.33672,0.33672 1.01015,-1.01015 0.23809,-0.2381 0.77206,0.23809 1.01015,0 2.09004,-2.09004 -3.19386,0.0817 1.01015,-2.02031 0.30117,-0.15058 0.77206,0.2381 1.01016,0 0.23809,-0.23809 -0.2381,-0.77205 0,-1.01015 0.23809,-0.23809 0.77205,0.2381 1.01015,0 0.23809,-0.23809 -0.2381,-0.77206 0,-1.01015 0.23809,-0.2381 0.77206,0.23809 1.01015,0 0.2381,-0.2381 -0.23809,-0.77206 0,-1.01015 0.2381,-0.2381 0.77206,0.23809 1.01015,0 0.2381,-0.2381 -0.23809,-0.77206 0,-1.01016 0.2381,-0.23809 0.77206,0.2381 1.01016,0 0.23809,-0.23809 -0.2381,-0.77205 0,-1.01015 0.23809,-0.23809 0.77205,0.2381 1.01015,0 2.09004,-2.09004 -3.19386,0.0817 1.01015,-2.0203 0.30117,-0.15059 0.77206,0.23809 1.01015,0 0.2381,-0.2381 -0.23809,-0.77206 0,-1.01016 0.2381,-0.23809 0.77206,0.2381 1.01016,0 0.23809,-0.23809 -0.15059,-0.70898 0,-1.01015 0.21296,-0.42592 0.67343,-0.67343 1.01015,-1.01015 0.33672,-0.33672 0.58423,-0.7972 1.01015,-1.01015 0.30117,-0.15059 0.77206,0.23809 1.01015,0 0.2381,-0.2381 -0.15058,-0.70899 0,-1.01016 0.17986,-0.35972 1.84045,-1.66058 2.02031,-2.0203 0.30117,-0.60234 -0.30117,-1.41797 0,-2.02031 0.21296,-0.42592 0.79719,-0.58423 1.01015,-1.01015 0.15371,-0.30742 0,-2.57553 0,-3.03046 0,-2.35702 0,-4.71404 0,-7.07107 0,-3.36717 0,-6.73435 0,-10.10152 0,-1.34687 0,-2.69374 0,-4.04061 0,-0.33672 0,-0.67344 0,-1.01015 0,-0.33672 -0.33672,-1.01016 0,-1.01016 0.33672,0 -0.23809,1.24825 0,1.01016 3.94236,-3.94236 -0.23382,-0.5425 1.01015,-3.03046 1.11676,-2.2335 0.62695,-0.31347 2.02031,-1.01015 0.42592,-0.21296 0.67343,-0.67344 1.01015,-1.01016 0.33672,-0.33671 0.7972,-0.58423 1.01015,-1.01015 0.15059,-0.30117 -0.23809,-0.77206 0,-1.01015 0.2381,-0.2381 0.77206,0.23809 1.01016,0 0.23809,-0.2381 -0.2381,-0.77206 0,-1.01015 0.23809,-0.2381 0.67343,0 1.01015,0 0.33672,0 0.67343,0 1.01015,0 2.69374,0 5.38748,0 8.08122,0 2.02031,0 4.04061,0 6.06092,0 0.33672,0 0.67343,0 1.01015,0 0.33672,0 0.70898,-0.15059 1.01015,0 0.42592,0.21295 0.58424,0.79719 1.01016,1.01015 0.30116,0.15058 0.70898,-0.15059 1.01015,0 0.42592,0.21296 0.58423,0.79719 1.01015,1.01015 0.30742,0.15371 2.57553,0 3.03046,0 2.36899,0 -0.47619,-0.23809 2.0203,1.01015 0.63491,0.31746 3.40571,-0.31745 4.04061,0 0.42592,0.21296 0.58424,0.7972 1.01016,1.01016 0.40051,0.20025 2.82394,-0.20652 3.03045,0 0.2381,0.23809 -0.23809,0.77205 0,1.01015 0.47619,0.47619 1.41797,-0.30117 2.02031,0 0.42592,0.21296 0.58423,0.79719 1.01015,1.01015 0.30117,0.15059 0.70898,-0.15058 1.01015,0 0.42592,0.21296 0.58424,0.79719 1.01016,1.01015 0.40051,0.20026 2.82394,-0.20651 3.03045,0 0.47619,0.47619 -0.47619,1.54412 0,2.02031 0.2381,0.23809 0.77206,-0.2381 1.01016,0 0.23809,0.23809 -0.2381,0.77206 0,1.01015 0.23809,0.2381 0.77205,-0.23809 1.01015,0 0.50508,0.50508 -0.50508,2.52538 0,3.03046 0.23809,0.23809 0.70898,-0.15059 1.01015,0 0.42592,0.21296 0.58424,0.79719 1.01015,1.01015 0.60234,0.30117 1.54412,-0.47619 2.02031,0 2.09004,2.09004 -3.19386,-0.0817 1.01015,2.02031 0.60234,0.30117 1.54412,-0.47619 2.02031,0 0.23809,0.23809 -0.2381,0.77205 0,1.01015 0.47619,0.47619 1.41796,-0.30117 2.0203,0 0.85184,0.42592 1.16847,1.59439 2.02031,2.0203 0.30742,0.15372 2.57552,0 3.03045,0 2.02031,0 4.04061,0 6.06092,0 3.03046,0 6.06092,0 9.09137,0 1.34737,0 0.67294,0 2.02031,0 0.33672,0 1.01015,-0.33671 1.01015,0 0,0.33672 -1.34687,0 -1.01015,0 0.67343,0 1.34687,0 2.0203,0 0.37097,0 3.99996,0.0406 4.04061,0 0.2381,-0.23809 -0.23809,-0.77205 0,-1.01015 0.2381,-0.23809 0.77206,0.2381 1.01016,0 0.23809,-0.23809 -0.2381,-0.77206 0,-1.01015 0.0325,-0.0325 2.78546,0 3.03045,0 0.33672,0 1.01016,-0.33672 1.01016,0 0,0.33672 -1.01016,0.33672 -1.01016,0 0,-1.24825 1.41661,-1.01015 2.02031,-1.01015"
         style="fill:none;stroke:#000000;stroke-width:1px;stroke-linecap:butt;stroke-linejoin:miter;stroke-opacity:1" />
      <path
         id="path2852"
         d="m 633.27556,715.79617 c -0.95238,-0.47619 -3.61006,-2.18149 -2.85714,-1.42857 0.98169,0.98169 2.48733,1.27558 3.57143,2.14286 0.37184,0.29747 -0.33672,1.09185 0,1.42857 0.16836,0.16836 0.54593,-0.16836 0.71429,0 0.16836,0.16836 0.23809,0.71429 0,0.71429 -0.33672,0 -1.05101,-0.71429 -0.71429,-0.71429 0.5324,0 0.9235,0.54593 1.42857,0.71429 0.45176,0.15058 1.09186,-0.33672 1.42857,0 0.16836,0.16835 -0.16836,0.54592 0,0.71428 0.16836,0.16836 0.54593,-0.16836 0.71429,0 0.16836,0.16836 -0.16836,0.54593 0,0.71429 0.16836,0.16836 0.54593,-0.16836 0.71428,0 0.16836,0.16836 -0.16835,0.54592 0,0.71428 0.16836,0.16836 0.54593,-0.16836 0.71429,0 0.16836,0.16836 -0.16836,0.54593 0,0.71429 0.16836,0.16836 0.54593,-0.16836 0.71429,0 0.16836,0.16836 -0.10648,0.50132 0,0.71428 0.15058,0.30117 0.47619,0.47619 0.71428,0.71429"
         style="fill:none;stroke:#000000;stroke-width:1px;stroke-linecap:butt;stroke-linejoin:miter;stroke-opacity:1" />
      <path
         id="path2854"
         d="m 367.77556,848.49139 c -1.57142,-0.75906 -3.41964,-1.39101 -4.10714,-1.40434 -0.6875,-0.0134 -1.25,-0.30548 -1.25,-0.64923 0,-0.34375 -0.99036,-0.82308 -2.20079,-1.06516 -1.21044,-0.24209 -3.02164,-1.08584 -4.0249,-1.875 -1.00326,-0.78917 -2.42362,-1.43484 -3.15635,-1.43484 -0.73274,0 -1.33224,-0.44197 -1.33224,-0.98215 0,-0.54018 -0.96429,-1.175 -2.14286,-1.41071 -1.17857,-0.23572 -2.14286,-0.80337 -2.14286,-1.26146 0,-0.45809 -1.44643,-2.23868 -3.21428,-3.95688 -3.152,-3.06345 -3.21429,-3.21295 -3.21429,-7.71425 0,-2.52463 0.32143,-4.7889 0.71429,-5.0317 0.39285,-0.2428 0.71428,-1.20309 0.71428,-2.13399 0,-0.93089 0.48214,-2.17468 1.07143,-2.76396 0.58929,-0.58929 1.07143,-1.33875 1.07143,-1.66547 0,-0.32672 0.80357,-1.46065 1.78571,-2.51984 0.98215,-1.0592 1.78572,-2.35791 1.78572,-2.88602 0,-1.58796 1.72897,-4.80489 2.58563,-4.81086 0.43997,-0.003 1.17935,-1.93414 1.6431,-4.29129 0.46373,-2.35714 1.12287,-4.28571 1.46475,-4.28571 0.34187,0 0.83337,-0.96429 1.09223,-2.14286 0.25886,-1.17857 0.76654,-2.14286 1.12819,-2.14286 0.36163,0 0.65753,-0.70039 0.65753,-1.55642 0,-1.94782 1.54033,-6.30072 2.22959,-6.30072 0.28272,0 0.72583,-0.96428 0.98469,-2.14286 0.25886,-1.17857 0.76654,-2.14285 1.12819,-2.14285 0.39064,0 0.65753,-12.87058 0.65753,-31.7093 0,-27.52711 -0.14132,-31.76352 -1.07143,-32.12044 -0.58929,-0.22613 -1.07143,-1.06408 -1.07143,-1.86213 0,-0.79805 -0.28659,-1.45099 -0.63685,-1.45099 -0.35027,0 -0.85834,-0.88246 -1.12904,-1.96102 -0.2707,-1.07857 -1.53454,-3.24821 -2.80853,-4.82143 -1.274,-1.57322 -2.5237,-3.42291 -2.77712,-4.11041 -0.25343,-0.6875 -0.88201,-1.25 -1.39687,-1.25 -0.51486,0 -2.056,-1.08775 -3.42477,-2.41723 -2.96704,-2.88189 -10.08809,-6.86848 -12.26881,-6.86848 -1.99444,0 -6.53212,-3.05785 -10.30866,-6.94681 -1.63072,-1.67926 -3.33102,-3.05319 -3.77844,-3.05319 -1.13157,0 -10.04234,-9.28758 -10.04234,-10.46699 0,-0.52887 -0.45603,-0.96158 -1.0134,-0.96158 -0.55737,0 -2.08415,-1.17442 -3.39285,-2.60983 -1.30871,-1.43541 -4.06696,-4.21488 -6.12946,-6.1766 -2.0625,-1.96173 -3.75,-4.14633 -3.75,-4.85468 0,-0.70835 -0.40231,-1.54495 -0.89403,-1.85911 -2.50364,-1.59963 -2.75468,-3.8668 -2.43825,-22.01988 0.30976,-17.76975 0.77325,-23.19419 1.98185,-23.19419 0.34988,0 0.63614,-0.6199 0.63614,-1.37755 0,-0.75766 0.4241,-1.8023 0.94243,-2.32143 1.00893,-1.01046 2.629,-6.6603 2.629,-9.16834 0,-0.83624 0.48214,-2.00258 1.07143,-2.59186 0.58928,-0.58929 1.07143,-1.85204 1.07143,-2.80613 0,-0.95407 0.2848,-1.73469 0.63289,-1.73469 0.3481,0 1.23203,-1.15608 1.96429,-2.56907 0.73226,-1.41299 1.65229,-3.18925 2.04451,-3.94724 0.39222,-0.75798 1.60135,-1.77132 2.68696,-2.25185 1.08561,-0.48054 2.14301,-1.40674 2.34978,-2.05822 0.20677,-0.65148 0.84585,-1.36483 1.42018,-1.58521 0.57434,-0.22039 1.04424,-0.83384 1.04424,-1.36323 0,-0.52938 1.84822,-1.81647 4.10715,-2.86021 3.84264,-1.77549 4.95814,-1.92279 17.32142,-2.28728 7.26786,-0.21426 14.30385,-0.43805 15.63553,-0.49731 1.49798,-0.0666 2.74045,0.32883 3.2584,1.03716 0.46045,0.62969 1.70125,1.36177 2.75734,1.62683 1.05608,0.26506 1.92016,0.76851 1.92016,1.11878 0,0.35027 3.57878,0.63685 7.95285,0.63685 7.62002,0 13.47572,0.98028 13.47572,2.25592 0,0.33067 8.51786,0.60122 18.92858,0.60122 10.41071,0 18.92857,-0.25476 18.92857,-0.56614 0,-0.31137 1.50604,-0.96894 3.34677,-1.46126 1.92541,-0.51497 4.20321,-1.7913 5.36335,-3.00529 1.10913,-1.16059 2.34866,-2.11016 2.75453,-2.11016 0.40586,0 1.42796,-0.64286 2.27133,-1.42857 0.84337,-0.78572 2.26347,-1.42858 3.1558,-1.42858 1.02527,0 2.85194,-1.31447 4.96305,-3.57142 1.83736,-1.96429 3.77881,-3.57143 4.31434,-3.57143 0.53553,0 0.97368,-0.35582 0.97368,-0.79071 0,-0.43489 0.41525,-0.63136 0.92278,-0.4366 0.50753,0.19476 1.53325,-0.0923 2.27938,-0.63786 0.74613,-0.54559 2.06199,-0.99198 2.92414,-0.99198 0.86215,0 2.48822,-0.48016 3.61348,-1.06702 1.12527,-0.58687 2.76915,-1.06901 3.65308,-1.07143 0.88393,-0.002 1.60714,-0.3003 1.60714,-0.66193 0,-0.36164 1.02452,-0.88256 2.2767,-1.15758 2.81154,-0.61752 4.81096,-2.90033 4.8424,-5.52874 0.0131,-1.09269 0.5059,-2.17172 1.09519,-2.39785 0.87554,-0.33597 1.07143,-2.09087 1.07143,-9.59845 0,-7.94468 -0.20297,-9.5767 -1.50069,-12.06643 -0.82538,-1.58352 -1.7751,-2.87914 -2.11049,-2.87914 -0.33539,0 -0.82452,-1.14453 -1.08695,-2.5434 -0.29853,-1.59132 -1.2229,-3.09478 -2.46933,-4.0163 -1.20548,-0.89125 -2.17089,-2.42548 -2.44473,-3.88516 -0.26775,-1.42727 -0.87683,-2.41228 -1.4916,-2.41228 -0.57149,0 -1.03907,-0.29589 -1.03907,-0.65753 0,-0.36164 -0.96428,-0.86933 -2.14286,-1.12818 -1.17857,-0.25886 -2.14285,-0.73077 -2.14285,-1.04869 0,-0.31792 -1.125,-0.78909 -2.5,-1.04704 -1.49649,-0.28075 -2.5,-0.8861 -2.5,-1.50807 0,-1.36679 -9.97272,-1.4956 -11.32011,-0.1462 -0.65186,0.65282 -5.60596,0.95338 -18.42801,1.118 -14.74073,0.18926 -17.72444,0.0558 -18.7156,-0.8372 -0.64853,-0.5843 -2.06307,-1.28296 -3.14343,-1.55259 -1.08035,-0.26962 -1.96428,-0.77681 -1.96428,-1.12708 0,-0.35026 -0.64286,-0.63685 -1.42857,-0.63685 -0.95238,0 -1.42857,-0.47619 -1.42857,-1.42857 0,-0.79365 -0.4762,-1.42857 -1.07143,-1.42857 -0.89302,0 -1.07143,-1.43112 -1.07143,-8.59437 0,-6.02357 -0.32049,-9.36142 -1.07143,-11.15866 -0.58929,-1.41036 -1.07143,-3.79563 -1.07143,-5.30059 0,-2.87587 -1.2391,-6.37495 -2.25751,-6.37495 -0.3298,0 -0.59963,-0.43297 -0.59963,-0.96214 0,-1.75894 -2.46573,-3.8156 -5.17857,-4.31942 -1.47322,-0.27361 -2.67857,-0.80433 -2.67857,-1.17938 0,-0.37506 -0.36635,-0.68192 -0.81412,-0.68192 -0.44776,0 -1.17958,-0.49981 -1.62626,-1.11069 -1.30006,-1.77793 -5.7691,-2.42548 -16.86517,-2.4437 -9.50482,-0.0156 -10.47977,0.10303 -11.60015,1.41153 -0.67275,0.78572 -1.70847,1.42857 -2.3016,1.42857 -0.59313,0 -1.07842,0.49251 -1.07842,1.09445 0,0.60195 -0.72321,1.38514 -1.60714,1.74044 -0.88393,0.35529 -1.38068,0.66636 -1.1039,0.69126 0.27679,0.0249 -0.28571,0.83425 -1.25,1.79853 -0.96428,0.96429 -1.75324,2.07381 -1.75324,2.46562 0,0.3918 -1.125,1.80495 -2.5,3.14033 -1.375,1.33539 -2.5,2.77396 -2.5,3.19683 0,0.42287 -0.72897,1.35469 -1.61992,2.0707 -2.62951,2.11321 -3.34414,7.94804 -3.39633,27.73042 -0.0259,9.82142 0.16804,18.90178 0.431,20.17857 0.42584,2.06765 0.7424,2.32143 2.89581,2.32143 1.53379,0 2.8649,0.52228 3.64088,1.42857 0.67275,0.78571 1.5995,1.42857 2.05945,1.42857 0.45995,0 1.02128,0.48214 1.24741,1.07143 0.22613,0.58928 1.02473,1.07143 1.77467,1.07143 0.74995,0 1.76368,0.48214 2.25274,1.07142 0.48906,0.58929 1.33199,1.07143 1.87317,1.07143 0.54119,0 0.93125,0.24107 0.8668,0.53572 -0.27039,1.23629 1.03661,4.39017 1.96735,4.74733 0.69292,0.26589 1.00312,1.56292 0.99462,4.15882 -0.0137,4.18266 -1.63753,6.4772 -5.2203,7.37643 -1.05062,0.26368 -1.91021,0.87691 -1.91021,1.36272 0,0.4858 -0.64286,1.46506 -1.42857,2.17613 -0.78572,0.71106 -1.42857,1.59328 -1.42857,1.96049 0,1.5571 -3.46418,3.35917 -7.33126,3.81374 -3.66426,0.43072 -4.16841,0.68889 -4.58476,2.34778 -0.50073,1.99504 -1.84145,3.6637 -2.94368,3.6637 -0.37181,0 -0.87261,-0.98294 -1.11288,-2.18431 -0.82674,-4.13367 -1.23877,-4.24426 -15.81314,-4.24426 -13.87543,0 -13.96871,-0.0192 -15.78941,-3.24445 -0.43418,-0.76912 -2.02855,-2.04127 -3.54304,-2.82698 -3.261,-1.6918 -6.68859,-5.22352 -6.71804,-6.92213 -0.0115,-0.66431 -0.34237,-1.4065 -0.73522,-1.6493 -1.13541,-0.70172 -0.91198,-8.92857 0.24249,-8.92857 0.52622,0 1.30526,-0.76484 1.73119,-1.69966 0.47206,-1.03606 2.62231,-2.59989 5.50741,-4.00541 2.60314,-1.26817 5.67976,-3.31582 6.83693,-4.55034 l 2.10394,-2.24459 0.003,-10.12181 0.003,-10.12183 2.14286,-0.47065 c 1.17857,-0.25885 2.14285,-0.76654 2.14285,-1.12818 0,-0.36164 0.44776,-0.65753 0.99501,-0.65753 1.53021,0 1.86214,-1.66557 1.86214,-9.34414 l 0,-7.08443 -4.28572,0 -4.28571,0 0,-3.21429 c 0,-2.5027 0.25929,-3.21428 1.17125,-3.21428 0.64419,0 1.56529,-0.53887 2.04688,-1.19748 0.59931,-0.81961 2.25829,-1.29749 5.25731,-1.51442 2.40994,-0.17432 4.3817,-0.59975 4.3817,-0.94538 0,-0.34564 0.40592,-0.62844 0.90205,-0.62844 0.85695,0 2.04373,-1.72088 3.0787,-4.46428 0.26745,-0.70892 1.20849,-1.25 2.17399,-1.25 0.93632,0 1.7024,-0.35892 1.7024,-0.7976 0,-0.46581 0.64229,-0.62963 1.54405,-0.39381 2.07871,0.54359 3.92749,-0.55298 5.25262,-3.11548 0.60344,-1.16693 1.53356,-2.12168 2.06694,-2.12168 0.53338,0 1.14413,-0.66672 1.35722,-1.48158 0.21309,-0.81487 1.05415,-1.65593 1.86902,-1.86903 0.81487,-0.21309 1.48158,-0.64972 1.48158,-0.97028 0,-0.32057 0.69851,-0.80454 1.55223,-1.07551 0.85373,-0.27096 2.20005,-1.09619 2.99183,-1.83384 0.79178,-0.73766 1.86113,-1.34119 2.37634,-1.34119 0.51521,0 0.93674,-0.44552 0.93674,-0.99004 0,-0.54453 1.20536,-1.54983 2.67858,-2.23401 1.47321,-0.68417 3.1842,-1.68344 3.8022,-2.22058 0.618,-0.53715 2.70728,-1.18976 4.64286,-1.45024 1.93557,-0.26049 4.16208,-0.87683 4.94779,-1.36965 0.78572,-0.49282 2.70922,-1.05972 4.27445,-1.25979 1.8239,-0.23314 3.3897,-0.99599 4.36021,-2.12428 0.83288,-0.96828 2.20996,-1.98129 3.06019,-2.25114 0.85021,-0.26985 2.54505,-1.40327 3.7663,-2.51871 1.22125,-1.11544 3.36854,-2.24345 4.77175,-2.5067 1.40321,-0.26324 3.20172,-0.93421 3.9967,-1.49103 2.08232,-1.45851 17.4456,-1.42974 19.38388,0.0363 0.76259,0.57679 1.91464,1.05893 2.5601,1.07143 0.64547,0.0125 1.34618,0.4725 1.55714,1.02224 0.21095,0.54975 1.61141,1.39878 3.11213,1.88675 1.50072,0.48796 2.98562,1.32389 3.29979,1.85761 0.31416,0.53372 1.20246,0.9704 1.97398,0.9704 0.77152,0 1.9609,0.30387 2.64308,0.67526 0.68217,0.37139 2.43532,0.86616 3.89591,1.09949 1.46059,0.23332 3.12513,0.89374 3.69899,1.46759 0.57385,0.57386 1.36952,1.04337 1.76817,1.04337 0.39864,0 1.14481,0.57717 1.65816,1.2826 0.51334,0.70542 2.21907,1.90512 3.7905,2.66598 2.42512,1.1742 4.80127,1.42211 15.71429,1.6395 12.30108,0.24503 12.9421,0.18927 14.82143,-1.28926 1.08035,-0.84995 1.96428,-2.00417 1.96428,-2.56495 0,-0.56077 0.64286,-1.01958 1.42857,-1.01958 0.78572,0 1.42857,-0.24754 1.42857,-0.55009 0,-0.30255 3.375,-4.05003 7.5,-8.32773 4.125,-4.27769 7.5,-8.35047 7.5,-9.05061 0,-0.70014 0.32143,-1.47163 0.71429,-1.71443 0.43328,-0.26778 0.71429,-5.48684 0.71429,-13.26613 0,-13.8552 0.042,-14.03854 4.17857,-18.23496 l 2.39285,-2.42748 7.70407,0 c 5.44469,0 8.30408,0.31293 9.75,1.06703 1.12526,0.58686 2.77351,1.06901 3.66277,1.07143 0.88926,0.002 2.17497,0.29176 2.85714,0.64299 0.68217,0.35122 3.00817,0.99498 5.16888,1.43057 4.87972,0.98372 5.00977,1.02268 6.91733,2.07233 0.8581,0.47218 2.06346,0.85851 2.67857,0.85851 0.61512,0 1.11839,0.44775 1.11839,0.99501 0,0.54725 0.48214,1.18002 1.07143,1.40615 0.58928,0.22613 1.07142,1.2248 1.07142,2.21928 0,0.99447 0.35109,1.80813 0.7802,1.80813 0.4291,0 1.58671,0.63441 2.57246,1.4098 0.98575,0.77539 2.87321,1.61258 4.19436,1.86043 1.32115,0.24785 2.77433,0.89916 3.22928,1.44735 0.65551,0.78984 3.69253,0.9967 14.63281,0.9967 11.77621,0 13.89747,-0.16411 14.43039,-1.11641 1.11856,-1.99874 3.96178,-0.44351 12.3755,6.7693 48.60455,41.66717 78.53955,97.47232 86.81802,161.84711 1.61425,12.55268 1.82297,45.19505 0.36538,57.14286 -3.45982,28.36003 -10.38715,53.12912 -21.99852,78.65703 -3.79373,8.34059 -3.99791,8.62859 -5.58623,7.87903 -0.9067,-0.4279 -1.51257,-1.13238 -1.34636,-1.56552 0.16621,-0.43313 -0.51379,-1.1593 -1.51111,-1.61371 -1.69143,-0.77066 -1.81332,-1.16396 -1.81332,-5.85121 0,-4.89612 -0.45931,-6.3968 -3.03571,-9.9183 -0.6875,-0.9397 -1.24911,-2.2277 -1.24802,-2.86222 0.002,-1.32014 -2.77463,-7.06961 -4.10913,-8.50778 -0.49107,-0.52922 -0.89285,-1.5922 -0.89285,-2.36218 0,-0.76999 -0.4625,-1.57745 -1.02778,-1.79437 -0.56528,-0.21692 -1.24852,-1.41219 -1.51832,-2.65615 -0.26978,-1.24397 -0.85192,-2.49058 -1.29364,-2.77023 -0.48953,-0.30993 -0.89752,-3.58702 -1.04489,-8.39286 -0.13297,-4.33641 -0.53476,-7.88439 -0.89286,-7.88439 -0.35809,0 -0.65823,-0.88392 -0.66697,-1.96428 -0.009,-1.08036 -0.64444,-2.76786 -1.41269,-3.75 -0.76824,-0.98214 -1.40395,-2.34822 -1.41268,-3.03572 -0.009,-0.6875 -0.26684,-1.25 -0.57357,-1.25 -0.30673,0 -0.92167,-0.96428 -1.36653,-2.14285 -0.44486,-1.17857 -1.3189,-2.14286 -1.94232,-2.14286 -0.6234,0 -1.13347,-0.43049 -1.13347,-0.95666 0,-0.52616 -1.125,-1.98038 -2.5,-3.2316 -1.375,-1.25123 -2.5,-2.58859 -2.5,-2.97192 0,-0.38333 -0.43447,-0.69696 -0.96549,-0.69696 -0.53101,0 -1.91949,-0.88393 -3.08548,-1.96429 -1.16599,-1.08036 -2.96725,-2.67296 -4.00279,-3.53913 -2.04805,-1.71306 -7.74598,-4.49658 -9.20459,-4.49658 -1.38876,0 -7.32498,-2.33997 -7.84036,-3.09056 -0.25072,-0.36514 -0.81256,-0.44344 -1.24853,-0.17399 -0.43598,0.26945 -1.83799,-0.0567 -3.11558,-0.72477 -1.27759,-0.66807 -2.88103,-1.4902 -3.5632,-1.82696 -0.68217,-0.33677 -7.91431,-0.61427 -16.07143,-0.61669 -11.64343,-0.004 -15.26319,-0.22977 -16.84138,-1.05293 -1.10565,-0.57668 -3.91815,-1.44259 -6.25,-1.92422 -2.33186,-0.48164 -4.23974,-1.10728 -4.23974,-1.39033 0,-0.28304 -0.96428,-0.72641 -2.14286,-0.98527 -1.17857,-0.25885 -2.14285,-0.69636 -2.14285,-0.97224 0,-0.27588 -1.44643,-0.92867 -3.21429,-1.45066 -1.76786,-0.52198 -3.21428,-1.23501 -3.21428,-1.58451 0,-0.34949 -0.58497,-0.63544 -1.29993,-0.63544 -0.71495,0 -2.40245,-0.98691 -3.75,-2.19313 -1.34754,-1.20622 -3.3268,-2.36996 -4.39834,-2.58609 -1.07155,-0.21612 -2.30921,-0.82785 -2.75035,-1.35939 -0.44114,-0.53154 -1.97513,-1.15522 -3.40887,-1.38594 -3.11834,-0.50183 -9.39251,-3.19126 -9.39251,-4.02613 0,-0.3257 -1.08565,-0.59218 -2.41255,-0.59218 -1.32689,0 -2.81268,-0.48214 -3.30174,-1.07143 -0.69862,-0.84179 -2.69858,-1.07143 -9.33102,-1.07143 -4.64299,0 -8.61794,0.28499 -8.83322,0.63332 -0.21527,0.34832 -1.50638,0.84247 -2.86912,1.09813 -1.36275,0.25565 -3.37523,0.93297 -4.47218,1.50514 -1.09695,0.57218 -2.39012,1.0423 -2.87371,1.04473 -0.48359,0.002 -1.10089,0.8875 -1.37179,1.96685 -0.2709,1.07935 -1.40202,2.87193 -2.51361,3.98352 -1.11159,1.11158 -2.02106,2.77695 -2.02106,3.7008 0,0.92387 -0.48215,2.1619 -1.07143,2.75118 -1.5131,1.51311 -1.5131,12.26241 0,13.77552 0.58928,0.58928 1.07143,2.22135 1.07143,3.62682 0,1.94511 0.5544,3.09294 2.32142,4.80623 1.27679,1.23795 2.88393,2.46569 3.57143,2.7283 0.6875,0.26262 1.25,0.809 1.25,1.21419 0,0.40519 0.48215,0.7367 1.07143,0.7367 0.58929,0 1.07143,0.48214 1.07143,1.07143 0,0.58928 0.44279,1.07143 0.98397,1.07143 0.54118,0 1.39625,0.49677 1.90015,1.10393 0.5039,0.60717 1.34683,0.93868 1.87317,0.7367 0.52635,-0.20197 0.957,-0.0907 0.957,0.24721 0,0.33794 0.81175,0.81816 1.80388,1.06718 0.99214,0.24901 2.38814,1.00707 3.10224,1.68458 0.71409,0.6775 2.63449,2.30645 4.26754,3.61988 1.63306,1.31342 2.96919,2.84021 2.96919,3.39285 0,0.55265 0.41687,1.00481 0.92637,1.00481 0.5095,0 1.71485,0.95067 2.67857,2.11261 0.96371,1.16193 2.09338,2.12622 2.51038,2.14285 0.41699,0.0167 1.53044,0.75347 2.47433,1.6374 0.94388,0.88393 2.37057,1.93778 3.1704,2.34188 1.37665,0.69555 1.4646,1.47182 1.64854,14.55072 0.10686,7.59879 -0.0971,14.17887 -0.45324,14.6224 -0.35614,0.44353 -0.87048,1.84915 -1.14297,3.1236 -0.2725,1.27445 -0.89635,2.56016 -1.38635,2.85714 -0.93543,0.56696 -2.16173,3.01759 -1.968,3.93283 0.0624,0.29464 -0.28838,0.53663 -0.77946,0.53777 -0.49107,10e-4 -1.53571,0.9705 -2.32142,2.15416 -0.78572,1.18367 -2.47322,2.53303 -3.75,2.99859 -1.27679,0.46555 -2.32143,1.08876 -2.32143,1.38489 0,0.29613 -1.125,0.74948 -2.5,1.00743 -1.375,0.25795 -2.5076,0.83502 -2.51689,1.28237 -0.009,0.44735 -1.29225,1.75688 -2.85103,2.91007 -1.55879,1.1532 -3.0038,2.6312 -3.21114,3.28446 -0.20734,0.65327 -1.17436,1.55107 -2.14896,1.99512 -0.97459,0.44405 -1.77198,1.17919 -1.77198,1.63363 0,0.45444 -0.75315,1.52426 -1.67366,2.37736 -0.92051,0.85309 -1.87709,2.36163 -2.12573,3.35231 -0.24864,0.99066 -1.28148,2.17911 -2.29519,2.64099 -1.01372,0.46188 -1.64531,1.15984 -1.40354,1.55103 0.24176,0.39118 0.0992,0.71125 -0.31687,0.71125 -0.41604,0 -0.75644,0.48214 -0.75644,1.07143 0,0.58928 -0.44466,1.07142 -0.98812,1.07142 -0.54347,0 -1.16247,0.66672 -1.37557,1.48158 -0.21309,0.81487 -1.05415,1.65593 -1.86902,1.86902 -0.81486,0.2131 -1.48158,0.77608 -1.48158,1.25106 0,1.19221 -3.06865,3.96977 -4.38581,3.96977 -1.55029,0 -4.43959,3.30788 -3.96639,4.54102 0.26317,0.68581 -0.1945,1.19147 -1.3382,1.47852 -1.0379,0.2605 -1.73817,0.95545 -1.73817,1.72497 0,0.7088 -1.80546,3.03304 -4.01215,5.16496 -4.53213,4.37861 -4.99731,4.84647 -9.82908,9.88554 -1.91625,1.99846 -3.92518,3.63356 -4.46428,3.63356 -0.53911,0 -0.98174,0.24108 -0.98362,0.53572 -0.005,0.78763 -4.81646,5.89286 -5.55375,5.89286 -0.92911,0 -3.3985,5.40635 -3.08133,6.74611 0.27045,1.14246 -1.54797,3.96817 -2.55363,3.96817 -0.57119,0 -0.95073,0.82054 -0.95073,2.0554 0,1.13047 -0.50449,2.47409 -1.12109,2.98582 -0.6166,0.51172 -0.96812,1.51537 -0.78115,2.23031 0.18695,0.71494 0.0897,1.2999 -0.2162,1.2999 -0.30587,0 -0.76172,1.28571 -1.013,2.85714 -0.25127,1.57143 -0.75079,2.85715 -1.11002,2.85715 -0.35923,0 -0.75722,4.67305 -0.88442,10.38458 -0.16953,7.61232 -0.48218,10.53928 -1.17116,10.96408 -0.76682,0.47279 -1.78126,4.647 -2.40627,9.90134 -0.0584,0.49107 -0.33658,0.89285 -0.61815,0.89285 -0.28155,0 -0.68849,0.6752 -0.9043,1.50045 -0.2158,0.82523 -0.7192,1.29845 -1.11865,1.05158 -0.41461,-0.25625 -0.92912,0.63244 -1.19899,2.07098 -0.26,1.38592 -0.83874,2.53054 -1.28609,2.54362 -1.13099,0.0331 -4.02765,2.53842 -4.02765,3.48358 0,0.4281 -0.46049,0.77837 -1.0233,0.77837 -0.56281,0 -1.22732,0.64285 -1.4767,1.42857 -0.41501,1.30757 -1.06945,1.42652 -7.72671,1.40433 -5.69011,-0.019 -7.89521,-0.32464 -10.13044,-1.40433 z"
         style="fill:#c87137" />
      <text
         id="text2856"
         y="568.79077"
         x="74.285713"
         style="font-size:240px;font-style:normal;font-weight:bold;fill:#000000;fill-opacity:1;stroke:none;font-family:DejaVu Serif;-inkscape-font-specification:DejaVu Serif Bold"
         xml:space="preserve"><tspan
           y="568.79077"
           x="74.285713"
           id="tspan2858"
           sodipodi:role="line"></tspan></text>
      <text
         transform="matrix(0.8112946,0.3310832,-0.43120176,1.0566277,0,0)"
         id="text2860"
         y="479.49582"
         x="421.96387"
         style="font-size:603.04467773px;font-style:normal;font-weight:normal;fill:#ffcc00;fill-opacity:1;stroke:none;font-family:LMMathItalic12;-inkscape-font-specification:LMMathItalic12"
         xml:space="preserve"><tspan
           y="479.49582"
           x="421.96387"
           id="tspan2862"
           sodipodi:role="line">1</tspan></text>
      <text
         transform="matrix(0.9182679,0.38096908,-0.37473819,0.93353621,0,0)"
         id="text2864"
         y="399.41446"
         x="563.9826"
         style="font-size:107.49310303px;font-style:normal;font-weight:normal;fill:#ffcc00;fill-opacity:1;stroke:none;font-family:Bitstream Vera Sans"
         xml:space="preserve"><tspan
           y="399.41446"
           x="563.9826"
           id="tspan2866"
           sodipodi:role="line">TRC</tspan></text>
      <text
         transform="matrix(0.89536005,0.3907162,-0.36538967,0.9574208,0,0)"
         id="text2868"
         y="447.97546"
         x="535.08405"
         style="font-size:70.98551941px;font-style:normal;font-weight:normal;fill:#ffcc00;fill-opacity:1;stroke:none;font-family:Bitstream Vera Sans"
         xml:space="preserve"><tspan
           y="447.97546"
           x="535.08405"
           id="tspan2870"
           sodipodi:role="line">Terracoin</tspan></text>
    </g>
  </g>
</svg>
